<svg width="1036" height="663" viewBox="0 0 1036 663" fill="none" xmlns="http://www.w3.org/2000/svg">
<g clip-path="url(#clip0_171_908)">
<path d="M43.3004 590.568H40.4192C39.843 590.568 39.596 590.321 39.596 589.745V547.356C39.596 546.78 39.843 546.533 40.4192 546.533H43.3004C43.8767 546.533 44.1236 546.78 44.1236 547.356V589.745C44.1236 590.321 43.8767 590.568 43.3004 590.568Z" fill="white"/>
<path d="M53.6728 589.992C53.0142 589.827 52.7673 589.415 52.9319 588.922L53.1789 586.205C53.1789 586.205 53.4258 585.629 53.5905 585.547C53.7551 585.465 54.0021 585.465 54.249 585.547C55.6485 586.288 57.0479 586.864 58.4474 587.193C59.8468 587.522 61.4932 587.687 63.3042 587.687C66.1855 587.687 68.5727 586.864 70.3838 585.3C72.1948 583.736 73.1827 581.431 73.1827 578.551C73.1827 577.398 72.7711 576.246 71.8655 575.094C70.96 573.941 69.7252 572.871 68.1611 571.801C66.7617 570.896 65.1976 569.99 63.4689 569.085C61.7402 568.097 60.0114 567.11 58.4474 565.957C56.8833 564.805 55.4838 563.57 54.4137 562.171C53.3435 560.772 52.7673 559.126 52.7673 557.233C52.7673 555.339 53.1789 553.611 53.9197 552.212C54.7429 550.73 55.8131 549.578 57.1302 548.59C58.4474 547.602 60.0114 546.862 61.6578 546.368C63.3866 545.874 65.1153 545.627 66.9263 545.627C68.4904 545.627 69.8075 545.709 71.0423 545.874C72.2772 546.038 73.512 546.368 74.9114 546.779C75.4876 546.944 75.7346 547.355 75.6523 547.849L75.1584 550.154C75.076 550.812 74.6644 550.977 74.1705 550.73C73.018 550.236 71.9479 549.825 70.8777 549.66C69.8075 549.495 68.4904 549.413 66.844 549.413C65.5269 549.413 64.2921 549.578 63.1396 549.907C61.9871 550.236 60.917 550.73 60.0938 551.306C59.2706 551.965 58.5297 552.706 58.0358 553.693C57.5418 554.681 57.2949 555.751 57.2949 557.068C57.2949 558.138 57.6242 559.043 58.365 559.949C59.0236 560.854 59.9291 561.76 60.917 562.5C61.9048 563.323 63.0573 563.982 64.2098 564.64C65.3623 565.299 66.4324 565.875 67.4203 566.451C68.7374 567.192 69.9722 568.015 71.207 568.756C72.4418 569.579 73.512 570.402 74.4998 571.472C75.4876 572.46 76.2285 573.53 76.8048 574.764C77.381 575.917 77.7103 577.316 77.7103 578.88C77.7103 580.855 77.2987 582.666 76.4755 584.148C75.6523 585.711 74.5821 587.028 73.265 588.098C71.9479 589.168 70.3838 589.992 68.5727 590.568C66.844 591.144 64.9507 591.473 63.0573 591.473C61.3286 591.473 59.7645 591.391 58.365 591.144C56.9656 590.897 55.4838 590.485 53.7551 589.992H53.6728Z" fill="white"/>
<path d="M124.057 568.591C124.057 575.67 122.328 581.184 119.2 585.135C115.742 589.415 110.885 591.555 104.629 591.555C98.3727 591.555 93.5158 589.415 89.976 585.135C86.6832 581.02 85.1191 575.505 85.1191 568.591C85.1191 565.299 85.5307 562.336 86.2716 559.619C87.0948 556.986 88.2473 554.599 89.729 552.541C91.5401 550.319 93.6804 548.672 96.15 547.438C98.7019 546.203 101.501 545.627 104.547 545.627C107.593 545.627 110.474 546.203 112.943 547.438C115.413 548.59 117.553 550.319 119.364 552.623C120.928 554.763 122.081 557.15 122.904 559.784C123.727 562.418 124.057 565.381 124.057 568.591ZM119.776 568.591C119.776 566.122 119.447 563.735 118.788 561.513C118.13 559.29 117.224 557.315 116.072 555.504C114.672 553.529 113.026 552.047 111.132 550.977C109.239 549.907 107.016 549.413 104.629 549.413C102.242 549.413 99.9367 549.907 98.0434 550.977C96.15 552.047 94.4213 553.529 93.1042 555.504C91.9517 557.315 91.0462 559.29 90.3876 561.513C89.729 563.735 89.3998 566.122 89.3998 568.591C89.3998 571.06 89.729 573.447 90.3876 575.67C91.0462 577.892 91.9517 579.95 93.1042 581.678C94.5036 583.571 96.2323 585.053 98.208 586.123C100.184 587.193 102.324 587.769 104.711 587.769C107.099 587.769 109.321 587.275 111.215 586.205C113.108 585.135 114.837 583.654 116.154 581.678C117.306 579.868 118.212 577.892 118.87 575.67C119.529 573.447 119.858 571.06 119.858 568.591H119.776Z" fill="white"/>
<path d="M150.646 590.403C150.07 590.321 149.823 589.827 149.905 589.004L150.07 586.946C150.07 586.453 150.481 586.37 151.058 586.617C152.045 587.029 153.033 587.276 154.021 587.44C155.009 587.605 156.161 587.687 157.479 587.687C160.277 587.687 162.665 587.111 164.723 586.041C166.781 584.971 168.51 583.407 169.744 581.349C171.72 578.057 172.79 573.777 172.872 568.674C170.485 572.542 166.863 574.518 162.089 574.518C158.466 574.518 155.338 573.612 152.951 571.719C149.823 569.332 148.259 565.628 148.259 560.608C148.259 556.163 149.576 552.706 152.128 550.072C154.762 547.356 158.302 545.957 162.829 545.957C172.379 545.957 177.153 552.953 177.153 567.028C177.153 583.16 170.485 591.227 157.067 591.227C155.256 591.227 153.116 590.98 150.728 590.403H150.646ZM172.461 560.854C172.461 557.727 171.638 555.175 169.991 553.035C168.18 550.813 165.711 549.66 162.747 549.66C159.537 549.66 156.985 550.648 155.174 552.706C153.363 554.599 152.457 557.151 152.457 560.361C152.457 563.735 153.28 566.369 154.927 568.262C156.655 570.073 159.043 570.979 162.171 570.979C165.299 570.979 167.933 570.073 169.827 568.262C171.638 566.369 172.543 563.9 172.543 560.937L172.461 560.854Z" fill="white"/>
<path d="M213.456 568.592C213.456 583.572 208.599 591.062 198.886 591.062C189.172 591.062 184.233 583.572 184.233 568.592C184.233 562.336 185.22 557.315 187.114 553.447C189.501 548.59 193.453 546.121 198.886 546.121C204.319 546.121 208.188 548.59 210.657 553.447C211.563 555.422 212.304 557.644 212.715 560.114C213.209 562.583 213.456 565.464 213.456 568.674V568.592ZM209.176 568.592C209.176 556.163 205.718 549.907 198.968 549.907C192.218 549.907 188.76 556.163 188.76 568.592C188.76 581.02 192.135 587.358 198.968 587.358C205.801 587.358 209.176 581.102 209.176 568.592Z" fill="white"/>
<path d="M249.595 568.592C249.595 583.572 244.738 591.062 235.024 591.062C225.31 591.062 220.371 583.572 220.371 568.592C220.371 562.336 221.359 557.315 223.252 553.447C225.64 548.59 229.591 546.121 235.024 546.121C240.457 546.121 244.326 548.59 246.796 553.447C247.702 555.422 248.442 557.644 248.854 560.114C249.348 562.583 249.595 565.464 249.595 568.674V568.592ZM245.314 568.592C245.314 556.163 241.857 549.907 235.024 549.907C228.192 549.907 224.817 556.163 224.817 568.592C224.817 581.02 228.192 587.358 235.024 587.358C241.857 587.358 245.314 581.102 245.314 568.592Z" fill="white"/>
<path d="M274.867 589.992C274.867 590.568 274.62 590.815 274.044 590.815H271.574C270.998 590.815 270.751 590.568 270.751 589.992V551.306C269.516 552.376 268.364 553.282 267.294 554.27C266.224 555.175 265.071 556.163 263.919 557.15C263.507 557.48 263.095 557.48 262.766 557.068L261.531 555.669C261.531 555.669 261.367 555.257 261.367 555.01C261.367 554.763 261.449 554.599 261.696 554.434L270.916 546.697C270.916 546.697 271.327 546.45 271.657 546.45H273.303C274.126 546.45 274.62 546.45 274.785 546.697C274.95 546.862 275.032 547.356 275.032 548.179V590.074L274.867 589.992Z" fill="white"/>
<path d="M43.3004 662.012H40.4192C39.843 662.012 39.596 661.766 39.596 661.189V618.8C39.596 618.224 39.843 617.977 40.4192 617.977H43.3004C43.8767 617.977 44.1236 618.224 44.1236 618.8V661.189C44.1236 661.766 43.8767 662.012 43.3004 662.012Z" fill="white"/>
<path d="M53.6728 661.436C53.0142 661.271 52.7673 660.86 52.9319 660.366L53.1789 657.65C53.1789 657.65 53.4258 657.074 53.5905 656.991C53.7551 656.909 54.0021 656.909 54.249 656.991C55.6485 657.732 57.0479 658.308 58.4474 658.637C59.8468 658.967 61.4932 659.131 63.3042 659.131C66.1855 659.131 68.5727 658.308 70.3838 656.744C72.1948 655.18 73.1827 652.876 73.1827 649.995C73.1827 648.843 72.7711 647.69 71.8655 646.538C70.96 645.386 69.7252 644.316 68.1611 643.246C66.7617 642.34 65.1976 641.435 63.4689 640.529C61.7402 639.542 60.0114 638.554 58.4474 637.402C56.8833 636.249 55.4838 635.015 54.4137 633.615C53.3435 632.216 52.7673 630.57 52.7673 628.677C52.7673 626.784 53.1789 625.055 53.9197 623.656C54.7429 622.174 55.8131 621.022 57.1302 620.034C58.4474 619.047 60.0114 618.306 61.6578 617.812C63.3866 617.318 65.1153 617.071 66.9263 617.071C68.4904 617.071 69.8075 617.154 71.0423 617.318C72.2772 617.483 73.512 617.812 74.9114 618.224C75.4876 618.388 75.7346 618.8 75.6523 619.294L75.1584 621.598C75.076 622.257 74.6644 622.421 74.1705 622.174C73.018 621.681 71.9479 621.269 70.8777 621.104C69.8075 620.94 68.4904 620.858 66.844 620.858C65.5269 620.858 64.2921 621.022 63.1396 621.351C61.9871 621.681 60.917 622.174 60.0938 622.751C59.2706 623.409 58.5297 624.15 58.0358 625.138C57.5418 626.125 57.2949 627.195 57.2949 628.512C57.2949 629.582 57.6242 630.488 58.365 631.393C59.0236 632.298 59.9291 633.204 60.917 633.945C61.9048 634.768 63.0573 635.426 64.2098 636.085C65.3623 636.743 66.4324 637.319 67.4203 637.895C68.7374 638.636 69.9722 639.459 71.207 640.2C72.4418 641.023 73.512 641.846 74.4998 642.916C75.4876 643.904 76.2285 644.974 76.8048 646.209C77.381 647.361 77.7103 648.76 77.7103 650.324C77.7103 652.3 77.2987 654.11 76.4755 655.592C75.6523 657.156 74.5821 658.473 73.265 659.543C71.9479 660.613 70.3838 661.436 68.5727 662.012C66.844 662.588 64.9507 662.917 63.0573 662.917C61.3286 662.917 59.7645 662.835 58.365 662.588C56.9656 662.341 55.4838 661.93 53.7551 661.436H53.6728Z" fill="white"/>
<path d="M124.057 640.036C124.057 647.114 122.328 652.629 119.2 656.58C115.742 660.86 110.885 663 104.629 663C98.3727 663 93.5158 660.86 89.976 656.58C86.6832 652.464 85.1191 646.95 85.1191 640.036C85.1191 636.743 85.5307 633.78 86.2716 631.064C87.0948 628.43 88.2473 626.043 89.729 623.985C91.5401 621.763 93.6804 620.117 96.15 618.882C98.7019 617.647 101.501 617.071 104.547 617.071C107.593 617.071 110.474 617.647 112.943 618.882C115.413 620.034 117.553 621.763 119.364 624.068C120.928 626.208 122.081 628.595 122.904 631.228C123.727 633.862 124.057 636.825 124.057 640.036ZM119.776 640.036C119.776 637.566 119.447 635.179 118.788 632.957C118.13 630.735 117.224 628.759 116.072 626.948C114.672 624.973 113.026 623.491 111.132 622.421C109.239 621.351 107.016 620.858 104.629 620.858C102.242 620.858 99.9367 621.351 98.0434 622.421C96.15 623.491 94.4213 624.973 93.1042 626.948C91.9517 628.759 91.0462 630.735 90.3876 632.957C89.729 635.179 89.3998 637.566 89.3998 640.036C89.3998 642.505 89.729 644.892 90.3876 647.114C91.0462 649.336 91.9517 651.394 93.1042 653.123C94.5036 655.016 96.2323 656.497 98.208 657.567C100.184 658.637 102.324 659.214 104.711 659.214C107.099 659.214 109.321 658.72 111.215 657.65C113.108 656.58 114.837 655.098 116.154 653.123C117.306 651.312 118.212 649.336 118.87 647.114C119.529 644.892 119.858 642.505 119.858 640.036H119.776Z" fill="white"/>
<path d="M166.534 661.436C166.534 662.012 166.287 662.259 165.711 662.259H163.241C162.665 662.259 162.418 662.012 162.418 661.436V622.751C161.183 623.821 160.031 624.726 158.96 625.714C157.89 626.619 156.738 627.607 155.585 628.595C155.174 628.924 154.762 628.924 154.433 628.512L153.198 627.113C153.198 627.113 153.033 626.702 153.033 626.455C153.033 626.208 153.116 626.043 153.363 625.879L162.582 618.141C162.582 618.141 162.994 617.895 163.323 617.895H164.97C165.793 617.895 166.287 617.895 166.451 618.141C166.616 618.306 166.698 618.8 166.698 619.623V661.518L166.534 661.436Z" fill="white"/>
<path d="M208.106 661.436C208.106 662.013 207.859 662.259 207.282 662.259H204.895C204.319 662.259 204.072 662.013 204.072 661.436V651.806H184.397C183.574 651.806 183.08 651.806 182.916 651.559C182.751 651.395 182.669 650.901 182.669 650.078V648.267C182.669 648.267 182.669 647.691 182.669 647.526C182.669 647.444 182.833 647.197 182.998 646.868L202.014 618.553C202.014 618.553 202.425 617.977 202.508 617.895C202.59 617.895 202.837 617.813 203.331 617.813H206.294C207.118 617.813 207.612 617.812 207.776 618.059C207.941 618.224 208.023 618.718 208.023 619.541V648.185H213.95C214.526 648.185 214.773 648.432 214.773 649.008V650.983C214.773 651.559 214.526 651.806 213.95 651.806H208.023V661.436H208.106ZM203.99 648.185V621.599C201.026 626.043 198.145 630.488 195.264 634.85C192.382 639.295 189.419 643.658 186.455 648.102H203.99V648.185Z" fill="white"/>
<path d="M249.595 640.036C249.595 655.016 244.738 662.506 235.024 662.506C225.31 662.506 220.371 655.016 220.371 640.036C220.371 633.78 221.359 628.759 223.252 624.891C225.64 620.035 229.591 617.565 235.024 617.565C240.457 617.565 244.326 620.035 246.796 624.891C247.702 626.866 248.442 629.089 248.854 631.558C249.348 634.027 249.595 636.908 249.595 640.118V640.036ZM245.314 640.036C245.314 627.607 241.857 621.352 235.024 621.352C228.192 621.352 224.817 627.607 224.817 640.036C224.817 652.465 228.192 658.802 235.024 658.802C241.857 658.802 245.314 652.547 245.314 640.036Z" fill="white"/>
<path d="M285.651 640.036C285.651 655.016 280.794 662.506 271.08 662.506C261.367 662.506 256.427 655.016 256.427 640.036C256.427 633.78 257.415 628.759 259.309 624.891C261.696 620.035 265.647 617.565 271.08 617.565C276.514 617.565 280.383 620.035 282.852 624.891C283.758 626.866 284.499 629.089 284.91 631.558C285.404 634.027 285.651 636.908 285.651 640.118V640.036ZM281.371 640.036C281.371 627.607 277.913 621.352 271.163 621.352C264.413 621.352 260.955 627.607 260.955 640.036C260.955 652.465 264.33 658.802 271.163 658.802C277.995 658.802 281.371 652.547 281.371 640.036Z" fill="white"/>
<path d="M310.923 661.436C310.923 662.012 310.677 662.259 310.1 662.259H307.631C307.054 662.259 306.807 662.012 306.807 661.436V622.751C305.573 623.821 304.42 624.726 303.35 625.714C302.28 626.619 301.127 627.607 299.975 628.595C299.563 628.924 299.152 628.924 298.822 628.512L297.588 627.113C297.588 627.113 297.423 626.702 297.423 626.455C297.423 626.208 297.505 626.043 297.752 625.879L306.972 618.141C306.972 618.141 307.384 617.895 307.713 617.895H309.359C310.183 617.895 310.677 617.895 310.841 618.141C311.006 618.306 311.088 618.8 311.088 619.623V661.518L310.923 661.436Z" fill="white"/>
<path d="M373.405 591.062C373.405 593.119 373.075 595.013 372.334 596.741C371.593 598.47 370.606 599.951 369.371 601.186C368.054 602.42 366.572 603.408 364.843 604.067C363.115 604.725 361.221 605.137 359.245 605.137C357.27 605.137 355.459 604.807 353.73 604.149C352.001 603.49 350.52 602.503 349.285 601.268C348.05 600.033 347.062 598.552 346.321 596.823C345.58 595.095 345.251 593.202 345.251 591.144C345.251 589.086 345.58 587.029 346.321 585.218C347.062 583.489 348.05 582.008 349.285 580.773C350.52 579.538 352.001 578.633 353.73 577.975C355.459 577.316 357.27 576.987 359.245 576.987C361.056 576.987 362.868 577.316 364.514 577.975C366.243 578.633 367.724 579.538 369.042 580.773C370.359 582.008 371.429 583.489 372.17 585.218C372.911 586.946 373.322 588.922 373.322 591.144L373.405 591.062ZM369.289 590.979C369.289 589.333 369.042 587.852 368.465 586.535C367.889 585.218 367.231 584.148 366.325 583.325C365.419 582.502 364.349 581.843 363.115 581.349C361.88 580.938 360.645 580.691 359.245 580.691C357.846 580.691 356.529 580.938 355.376 581.349C354.224 581.761 353.154 582.419 352.248 583.325C351.343 584.148 350.684 585.218 350.19 586.535C349.696 587.852 349.449 589.333 349.449 590.979C349.449 592.626 349.696 594.025 350.19 595.259C350.684 596.494 351.343 597.646 352.248 598.469C353.154 599.375 354.142 600.033 355.376 600.527C356.529 601.021 357.846 601.268 359.328 601.268C360.645 601.268 361.962 601.021 363.197 600.527C364.432 600.033 365.502 599.375 366.407 598.469C367.313 597.564 368.054 596.494 368.548 595.259C369.124 593.943 369.371 592.543 369.371 590.979H369.289ZM389.539 628.183C389.539 628.183 389.128 628.348 388.963 628.348H359.163C357.27 628.348 356.035 628.018 355.541 627.278C354.965 626.619 354.636 625.385 354.636 623.821V612.133C354.636 611.557 354.882 611.31 355.459 611.31H357.928C358.505 611.31 358.752 611.557 358.752 612.133V623.491C358.752 624.068 358.834 624.397 358.999 624.561C359.163 624.726 359.575 624.808 360.069 624.808H388.963C388.963 624.808 389.375 624.808 389.539 624.973C389.704 625.138 389.869 625.302 389.869 625.467V627.607C389.869 627.607 389.786 628.018 389.539 628.183ZM387.152 614.191H384.682C384.106 614.191 383.859 613.944 383.859 613.367V575.341C383.859 574.764 384.106 574.518 384.682 574.518H387.152C387.728 574.518 387.975 574.764 387.975 575.341V613.367C387.975 613.944 387.728 614.191 387.152 614.191Z" fill="white"/>
<path d="M449.962 600.692C449.962 600.692 450.292 601.021 450.292 601.268V603.326C450.292 603.326 450.209 603.737 449.962 603.902C449.798 604.067 449.551 604.149 449.386 604.149H398.759C398.759 604.149 398.348 604.149 398.101 603.902C397.936 603.737 397.854 603.573 397.854 603.326V601.268C397.854 601.268 397.936 600.856 398.101 600.692C398.265 600.527 398.512 600.527 398.759 600.527H449.386C449.386 600.527 449.798 600.527 449.962 600.692ZM437.861 581.843C435.803 583.818 433.004 585.712 429.465 587.522C430.535 587.852 431.852 588.181 433.169 588.51C434.568 588.839 435.968 589.251 437.367 589.58C438.767 589.909 440.249 590.321 441.648 590.568C443.047 590.897 444.447 591.144 445.682 591.391C446.176 591.473 446.34 591.802 446.258 592.214L445.435 594.189C445.27 594.601 444.858 594.766 444.365 594.683C443.047 594.436 441.483 594.107 439.837 593.696C438.191 593.284 436.462 592.872 434.733 592.379C433.004 591.885 431.276 591.473 429.629 590.979C427.983 590.486 426.419 589.992 424.937 589.58C421.809 590.897 418.434 592.049 414.812 593.037C411.19 594.025 407.567 594.848 403.863 595.506C403.534 595.506 403.287 595.506 403.122 595.424C402.958 595.259 402.875 595.095 402.793 594.848L402.217 593.037C402.052 592.461 402.217 592.132 402.711 592.049C405.427 591.638 408.308 590.979 411.354 590.156C414.4 589.333 417.281 588.428 420.08 587.358C422.879 586.288 425.431 585.218 427.818 584.148C430.206 582.995 432.017 581.925 433.416 580.938C434.075 580.444 434.322 580.115 434.157 579.785C433.992 579.538 433.663 579.374 433.087 579.374H407.32C406.827 579.374 406.58 579.127 406.58 578.633V576.575C406.58 576.081 406.827 575.834 407.32 575.834H434.568C437.614 575.834 439.425 576.328 440.002 577.398C440.578 578.468 439.837 579.95 437.944 581.761L437.861 581.843ZM442.471 619.623C442.471 620.94 442.142 622.175 441.566 623.162C440.989 624.15 440.166 625.055 439.178 625.878C438.191 626.619 437.038 627.278 435.721 627.854C434.404 628.348 433.087 628.759 431.687 629.088C430.288 629.418 428.971 629.582 427.571 629.747C426.172 629.912 424.937 629.912 423.785 629.912C422.632 629.912 421.397 629.912 420.08 629.747C418.681 629.582 417.364 629.418 415.964 629.088C414.565 628.759 413.248 628.348 412.013 627.854C410.696 627.36 409.543 626.702 408.555 625.878C407.567 625.138 406.744 624.232 406.168 623.162C405.592 622.175 405.262 620.94 405.262 619.623C405.262 618.306 405.592 617.154 406.168 616.166C406.744 615.178 407.567 614.273 408.555 613.532C409.543 612.791 410.696 612.133 412.013 611.639C413.33 611.145 414.647 610.734 415.964 610.404C417.364 610.075 418.681 609.828 420.08 609.746C421.397 609.581 422.714 609.499 423.867 609.499C425.019 609.499 426.254 609.499 427.654 609.746C429.053 609.91 430.37 610.075 431.77 610.404C433.169 610.734 434.486 611.145 435.803 611.639C437.038 612.133 438.191 612.791 439.178 613.532C440.166 614.273 440.989 615.178 441.566 616.248C442.142 617.318 442.471 618.471 442.471 619.788V619.623ZM438.191 619.705C438.191 618.388 437.614 617.236 436.544 616.331C435.474 615.425 434.157 614.767 432.675 614.273C431.111 613.779 429.547 613.45 427.983 613.285C426.336 613.121 425.019 613.038 423.949 613.038C422.879 613.038 421.48 613.121 419.833 613.285C418.187 613.45 416.705 613.779 415.223 614.273C413.741 614.767 412.424 615.425 411.354 616.331C410.284 617.236 409.708 618.306 409.708 619.705C409.708 621.105 410.284 622.175 411.354 622.998C412.424 623.821 413.741 624.479 415.223 624.973C416.705 625.467 418.269 625.796 419.833 625.961C421.48 626.125 422.797 626.208 423.949 626.208C425.102 626.208 426.336 626.125 427.983 625.961C429.629 625.796 431.193 625.467 432.675 624.973C434.239 624.479 435.474 623.821 436.544 622.998C437.614 622.175 438.191 621.022 438.191 619.705Z" fill="white"/>
<path d="M484.043 583.325C483.878 586.782 483.137 590.074 481.985 593.366C480.832 596.659 479.268 599.786 477.21 602.832C475.152 605.795 472.683 608.594 469.801 611.145C466.92 613.697 463.627 615.919 460.005 617.894C459.511 618.141 459.1 618.141 458.853 617.73L457.536 615.672C457.289 615.178 457.371 614.849 457.783 614.684C461.158 612.956 464.121 610.98 466.756 608.676C469.39 606.453 471.613 603.984 473.424 601.35C475.235 598.716 476.716 596 477.787 593.037C478.857 590.074 479.515 587.193 479.845 584.065C479.845 583.489 479.845 583.078 479.598 582.831C479.351 582.584 478.939 582.502 478.363 582.502H459.429C458.935 582.502 458.688 582.255 458.688 581.761V579.703C458.688 579.209 458.935 578.962 459.429 578.962H479.515C481.409 578.962 482.643 579.291 483.22 580.032C483.796 580.691 484.043 581.843 483.961 583.242L484.043 583.325ZM499.19 629.418H496.72C496.144 629.418 495.897 629.171 495.897 628.595V575.341C495.897 574.764 496.144 574.518 496.72 574.518H499.19C499.766 574.518 500.013 574.764 500.013 575.341V628.595C500.013 629.171 499.766 629.418 499.19 629.418Z" fill="white"/>
<path d="M555.168 603.82H552.698C552.122 603.82 551.875 603.573 551.875 602.996V591.226H541.42C541.173 592.872 540.679 594.436 539.856 595.836C539.033 597.235 538.045 598.469 536.728 599.457C535.493 600.445 534.011 601.268 532.447 601.844C530.801 602.42 529.154 602.75 527.343 602.75C525.45 602.75 523.639 602.42 521.91 601.762C520.264 601.103 518.782 600.198 517.465 599.046C516.23 597.893 515.16 596.494 514.419 594.848C513.678 593.202 513.349 591.391 513.349 589.415C513.349 587.275 513.678 585.465 514.419 583.818C515.16 582.172 516.148 580.773 517.465 579.621C518.782 578.468 520.182 577.563 521.91 576.987C523.639 576.411 525.368 576.081 527.343 576.081C528.99 576.081 530.636 576.328 532.2 576.822C533.764 577.316 535.246 578.139 536.481 579.127C537.798 580.115 538.868 581.349 539.691 582.748C540.515 584.23 541.091 585.876 541.338 587.687H551.792V575.505C551.792 574.929 552.039 574.682 552.616 574.682H555.085C555.662 574.682 555.908 574.929 555.908 575.505V603.079C555.908 603.655 555.662 603.902 555.085 603.902L555.168 603.82ZM537.304 589.333C537.304 587.769 537.057 586.37 536.481 585.218C535.905 584.065 535.164 582.995 534.258 582.172C533.353 581.349 532.283 580.773 531.048 580.361C529.895 579.95 528.578 579.703 527.261 579.703C525.944 579.703 524.709 579.95 523.474 580.361C522.322 580.773 521.252 581.349 520.346 582.172C519.441 582.995 518.782 583.983 518.206 585.218C517.712 586.452 517.465 587.769 517.465 589.333C517.465 590.815 517.712 592.132 518.206 593.284C518.7 594.436 519.358 595.506 520.264 596.329C521.169 597.152 522.157 597.811 523.392 598.305C524.544 598.799 525.862 598.963 527.261 598.963C528.578 598.963 529.813 598.716 531.048 598.305C532.2 597.811 533.27 597.235 534.258 596.329C535.164 595.506 535.905 594.519 536.481 593.284C537.057 592.132 537.304 590.732 537.304 589.251V589.333ZM526.52 629.006C525.532 629.006 524.791 629.006 524.215 628.842C523.639 628.759 523.227 628.512 522.898 628.183C522.569 627.854 522.322 627.442 522.24 626.866C522.157 626.29 522.075 625.632 522.075 624.808V607.688C522.075 607.688 522.075 607.359 522.322 607.194C522.486 607.112 522.651 607.03 522.898 607.03H525.532C525.532 607.03 525.862 607.03 526.026 607.277C526.191 607.441 526.191 607.523 526.191 607.688V614.026H551.875V607.853C551.875 607.853 551.875 607.523 552.039 607.277C552.204 607.112 552.369 607.03 552.533 607.03H555.168C555.168 607.03 555.579 607.03 555.744 607.277C555.909 607.441 555.991 607.606 555.991 607.77V625.22C555.991 626.701 555.662 627.772 555.003 628.265C554.344 628.759 553.192 629.006 551.463 629.006H526.602H526.52ZM526.191 617.565V623.985C526.191 624.561 526.273 624.973 526.52 625.138C526.685 625.302 527.096 625.385 527.673 625.385H550.475C551.052 625.385 551.381 625.302 551.628 625.138C551.792 624.973 551.957 624.561 551.957 623.985V617.565H526.273H526.191Z" fill="white"/>
<path d="M487.171 243.553C487.171 378.046 378.097 487.105 243.586 487.105C109.074 487.105 0 378.046 0 243.553C0 109.06 109.074 0 243.586 0C378.097 0 487.171 109.06 487.171 243.553Z" fill="#004077"/>
<path d="M393.738 243.964C393.738 326.52 326.811 393.437 244.244 393.437C161.677 393.437 94.7506 326.52 94.7506 243.964C94.7506 161.408 161.677 94.4907 244.244 94.4907C326.811 94.4907 393.738 161.408 393.738 243.964Z" fill="white"/>
<path d="M152.869 195.731H181.681L152.622 280.427H123.398L152.869 195.731Z" fill="#004077"/>
<path d="M268.611 215.732H244.573L222.347 280.427H193.123L215.597 215.732C208.846 215.567 203.413 215.732 199.297 216.144C195.099 216.555 191.724 217.214 189.09 218.119C186.455 219.024 184.397 220.094 182.833 221.411C181.269 222.728 179.787 224.128 178.47 225.609C178.059 226.103 177.482 226.185 176.824 226.103C176.165 225.938 175.918 225.609 176.083 225.115C178.882 220.341 181.681 216.061 184.48 212.357C187.196 208.654 190.407 205.526 194.111 202.974C197.733 200.423 202.096 198.529 207.118 197.213C212.139 195.896 218.396 195.319 225.887 195.402V195.649H275.443L268.446 215.732H268.611Z" fill="#004077"/>
<path d="M268.858 260.509H306.807C309.359 260.509 311.829 260.344 314.134 260.097C316.439 259.85 318.497 259.356 320.226 258.533C321.954 257.792 323.107 256.64 323.683 254.994C324.342 253.018 324.424 251.619 323.848 250.878C323.272 250.138 322.119 249.314 320.308 248.491C318.744 248.491 316.851 248.574 314.628 248.574C312.405 248.574 310.018 248.574 307.466 248.409C304.914 248.327 302.362 248.08 299.728 247.833C297.094 247.586 294.706 247.174 292.484 246.598C290.261 246.022 288.368 245.364 286.721 244.458C285.075 243.635 284.005 242.565 283.346 241.248C282.688 239.849 281.947 238.367 281.288 236.721C280.63 235.075 280.053 233.264 279.642 231.371C279.23 229.478 279.148 227.503 279.23 225.363C279.395 223.222 279.806 221.082 280.712 218.86C278.325 219.683 276.102 220.671 274.209 221.741C272.315 222.811 270.669 224.128 269.352 225.527C269.105 225.774 268.858 225.856 268.693 225.856C268.282 226.103 267.788 226.103 267.294 225.856C266.8 225.692 266.635 225.363 266.8 224.869C269.681 220.095 272.48 215.815 275.361 212.111C278.242 208.407 281.453 205.279 285.157 202.728C288.862 200.176 293.225 198.283 298.328 196.966C303.432 195.649 309.689 194.99 317.18 195.073H364.432L358.916 215.403H317.427C314.381 215.815 311.829 216.391 309.606 217.132C307.384 217.872 305.902 219.107 304.996 220.918C304.091 222.811 303.844 224.375 304.42 225.609C304.996 226.844 306.067 227.832 307.713 228.49C308.372 228.82 309.112 228.984 309.771 229.149C310.43 229.231 311.253 229.313 312.241 229.396C313.146 229.396 314.299 229.396 315.616 229.396H320.308C327.964 229.396 333.891 229.89 338.007 230.96C342.123 232.03 345.251 233.84 347.309 236.392C348.955 238.367 349.861 241.001 350.026 244.376C350.19 247.751 349.532 251.29 348.05 254.912C346.321 259.521 344.016 263.801 341.135 267.669C338.254 271.538 334.385 274.583 329.446 276.559C326.4 277.876 322.448 278.781 317.591 279.193C312.652 279.687 306.396 279.933 298.575 279.933H263.178L268.693 260.015L268.858 260.509Z" fill="#004077"/>
<path d="M365.666 294.914H124.057V299.111H365.666V294.914Z" fill="#666666"/>
<path d="M75.57 206.349L74.9937 209.559L24.8607 199.929L25.5193 196.719L75.6523 206.349H75.57Z" fill="white"/>
<path d="M79.686 189.64L78.8628 192.768L45.6054 191.122C45.1115 191.122 44.2883 191.122 43.1358 191.04C42.6419 191.04 41.8187 191.04 40.7485 190.875L76.8871 200.505L76.2285 203.057L26.9187 189.97L27.8242 186.43L58.5297 187.994C58.5297 187.994 60.67 188.077 64.1275 188.241L29.7176 179.105L30.3762 176.553L79.7683 189.64H79.686Z" fill="white"/>
<path d="M83.0611 180.175L81.8263 183.467L41.2424 168.734L39.596 173.343L32.1872 170.627L36.7148 158.198L44.1236 160.914L42.4772 165.524L83.0611 180.257V180.175Z" fill="white"/>
<path d="M90.3053 163.301L85.3661 174.084L38.9375 152.93L43.7944 142.23L50.7093 145.358L47.1695 153.012L59.7645 158.774L62.5634 152.601L69.3136 155.646L66.5147 161.82L79.5213 167.746L83.0611 159.926L90.3053 163.219V163.301Z" fill="white"/>
<path d="M98.6196 148.65L96.8909 151.695L77.2987 143.711L74.9937 147.745L93.1865 158.198L91.5401 161.079L47.2518 135.645L51.2032 128.731C52.2733 126.838 54.3313 126.097 57.2126 126.591C60.1761 127.085 63.5512 128.402 67.3379 130.624C73.018 133.917 76.3932 137.127 77.4633 140.255L98.6196 148.732V148.65ZM68.5727 144.041L70.6308 140.501C71.207 139.514 71.0424 138.361 70.1368 137.127C69.2313 135.892 67.6672 134.74 65.6092 133.505C63.6335 132.353 61.9871 131.694 60.423 131.53C58.9413 131.365 57.9534 131.694 57.4595 132.6L55.3192 136.386L68.6551 144.041H68.5727Z" fill="white"/>
<path d="M108.169 135.069L106.275 137.703L75.7346 124.369C75.2407 124.204 74.4998 123.875 73.4296 123.381C72.9357 123.217 72.1948 122.887 71.207 122.393L101.583 144.205L100.019 146.345L58.5297 116.632L60.67 113.669L88.8235 126.015C88.8235 126.015 90.7992 126.838 93.9274 128.237L65.033 107.496L66.5147 105.355L108.004 135.069H108.169Z" fill="white"/>
<path d="M120.023 121.324L117.718 123.958L107.593 117.044L102.983 122.311L111.215 131.365L109.404 133.505L74.9937 95.314L77.628 92.2686L120.023 121.324ZM101.501 112.846L82.6495 99.841L98.0434 116.879L101.583 112.846H101.501Z" fill="white"/>
<path d="M124.88 116.714L122.328 119.184L92.3633 88.1532L88.9058 91.5278L83.3904 85.8485L92.9395 76.6299L98.455 82.3092L94.9975 85.6839L125.044 116.714H124.88Z" fill="white"/>
<path d="M132.206 110.13L129.737 112.27L96.15 73.8314L98.6196 71.6914L132.206 110.13Z" fill="white"/>
<path d="M140.685 104.286C138.71 105.767 135.746 104.862 131.548 101.652C127.432 98.4418 123.069 93.8325 118.541 87.8239C114.014 81.8977 110.885 76.5476 108.992 71.6914C107.099 66.8351 107.099 63.7074 108.992 62.3081C110.885 60.9089 113.931 61.732 118.047 64.8597C122.163 67.9874 126.526 72.5968 131.054 78.523C135.828 84.7785 139.121 90.2932 140.85 95.0671C142.661 99.7588 142.579 102.887 140.685 104.286ZM136.24 98.3595C137.145 97.6187 137.145 95.9725 136.24 93.2563C135.252 90.5401 132.536 86.3424 128.173 80.6631C124.633 75.9714 121.587 72.5144 119.035 70.2921C116.483 68.0698 114.672 67.329 113.52 68.2344C111.297 69.9629 114.014 75.8891 121.669 85.9308C125.374 90.8694 128.502 94.3264 130.971 96.4664C133.441 98.5241 135.252 99.1826 136.322 98.4418L136.24 98.3595Z" fill="white"/>
<path d="M160.36 90.2932L157.643 91.9394L134.758 67.7405C134.758 67.7405 133.853 66.7528 133.029 65.9297C132.7 65.6005 132.124 64.942 131.383 64.2012L150.893 96.1372L148.67 97.5364L122.081 53.9949L125.209 52.1018L146.365 74.4075C146.365 74.4075 147.847 75.9714 150.234 78.523L131.712 48.1509L133.935 46.834L160.524 90.3755L160.36 90.2932Z" fill="white"/>
<path d="M176.495 82.3913L173.284 83.9551L166.698 73.6665L160.36 76.7119L164.311 88.2352L161.759 89.4699L145.048 40.8252L148.67 39.0967L176.412 82.3913H176.495ZM162.747 67.3287L150.481 47.9861L157.973 69.6334L162.747 67.3287Z" fill="white"/>
<path d="M188.76 77.7821L178.223 81.8152L160.113 34.0759L163.323 32.8413L178.47 72.7612L185.714 69.9627L188.678 77.7821H188.76Z" fill="white"/>
<path d="M203.166 73.749L199.709 74.6544L189.09 32.8414L184.397 34.076L182.422 26.4213L195.264 23.1289L197.239 30.7837L192.547 32.0183L203.166 73.8313V73.749Z" fill="white"/>
<path d="M221.112 70.2098L209.423 72.1852L200.779 21.8944L212.386 19.9189L213.703 27.4091L205.389 28.8083L207.776 42.4716L214.444 41.3193L215.679 48.6448L209.011 49.7972L211.398 63.872L219.877 62.3905L221.194 70.2098H221.112Z" fill="white"/>
<path d="M232.39 51.4434L235.518 52.1019C235.765 57.205 235.354 61.4851 234.448 64.8598C233.542 68.2345 232.061 70.0453 230.085 70.2099C228.439 70.3745 226.957 69.3045 225.722 67.0821C224.487 64.8598 223.417 61.732 222.512 57.7812C221.606 53.8304 220.947 49.468 220.536 44.6117C219.877 36.8747 220.042 30.5369 220.947 25.516C221.853 20.5775 223.499 17.9436 225.804 17.779C227.615 17.6144 229.262 19.0959 230.744 22.059C232.225 25.0222 233.296 29.4669 234.119 35.2285L231.155 36.3808C229.92 28.7261 228.356 25.0222 226.463 25.1868C225.228 25.2691 224.405 26.9976 223.993 30.2076C223.582 33.4177 223.664 38.1093 224.158 44.2002C224.652 50.3734 225.475 54.9827 226.463 58.0281C227.451 61.0736 228.521 62.6374 229.756 62.4728C230.744 62.3905 231.402 61.2382 231.978 59.0981C232.472 56.9581 232.637 54.4065 232.472 51.4434H232.39Z" fill="white"/>
<path d="M252.723 68.8926H249.43L249.677 46.6691H242.68L242.433 68.8103H239.14L239.634 17.6963H242.927L242.762 38.6851H249.76L250.007 17.7786H253.299L252.805 68.8926H252.723Z" fill="white"/>
<path d="M270.093 70.621L266.882 70.2918L263.589 37.1212C263.589 36.6273 263.425 35.8042 263.342 34.6519C263.342 34.1581 263.178 33.335 263.095 32.2649L258.979 69.4687L256.345 69.1394L261.943 18.437L265.565 18.8486L268.611 49.4676C268.611 49.4676 268.858 51.6076 269.187 55.0646L273.139 19.754L275.69 20.0832L270.093 70.7856V70.621Z" fill="white"/>
<path d="M279.971 73.3376C277.584 72.8438 276.267 69.963 276.02 64.6952C275.773 59.4274 276.431 53.1719 277.913 45.8464C279.477 38.6032 281.453 32.6769 283.922 28.0676C286.392 23.4583 288.697 21.4006 291.084 21.8944C293.389 22.3883 294.706 25.1868 295.036 30.3723C295.365 35.5578 294.706 41.8132 293.142 49.1388C291.496 56.8758 289.52 62.8844 287.051 67.3291C284.663 71.7738 282.276 73.7492 279.971 73.2553V73.3376ZM281.535 66.0944C282.688 66.3414 284.005 65.189 285.322 62.7198C286.721 60.1682 288.121 55.3943 289.603 48.398C290.837 42.6363 291.414 38.1093 291.496 34.7347C291.496 31.36 290.837 29.4669 289.438 29.22C286.721 28.6438 284.005 34.57 281.371 46.9987C280.053 53.0073 279.477 57.6989 279.559 60.909C279.642 64.119 280.3 65.9298 281.617 66.1767L281.535 66.0944Z" fill="white"/>
<path d="M301.292 78.3585L290.508 75.0661L305.49 26.2568L308.783 27.2445L296.271 68.0699L303.679 70.3745L301.21 78.3585H301.292Z" fill="white"/>
<path d="M308.619 82.0624C306.396 81.157 305.573 78.1115 306.231 72.8437C306.89 67.6583 308.619 61.5674 311.417 54.5711C314.216 47.6571 317.18 42.2247 320.39 38.1093C323.601 33.9938 326.317 32.43 328.458 33.253C330.68 34.1584 331.504 37.1216 330.845 42.307C330.269 47.4925 328.54 53.5011 325.741 60.4974C322.778 67.8229 319.732 73.4199 316.604 77.3707C313.475 81.3216 310.759 82.8855 308.619 81.9801V82.0624ZM311.417 75.2307C312.488 75.6423 313.969 74.8192 315.78 72.5145C317.591 70.2922 319.814 65.8475 322.531 59.0981C324.753 53.6657 326.153 49.3033 326.729 45.9287C327.388 42.554 326.976 40.6609 325.659 40.0847C323.025 39.0147 319.32 44.3648 314.628 56.135C312.323 61.8143 310.923 66.3413 310.43 69.5514C309.936 72.7614 310.265 74.6545 311.5 75.1484L311.417 75.2307Z" fill="white"/>
<path d="M343.028 68.7281L330.927 91.8569L329.61 91.1985L331.915 84.6137C328.622 88.6469 325.988 90.1285 324.012 89.1407C321.79 87.9884 321.378 84.7784 322.778 79.5106C324.177 74.2428 326.4 68.5635 329.692 62.3903C333.068 55.8879 336.607 50.7024 340.147 46.8339C343.687 42.9653 346.568 41.5661 348.791 42.7184C350.437 43.5415 351.096 45.5992 350.766 48.8093C350.437 52.0193 349.367 55.6409 347.638 59.6741H344.428C346.815 53.8301 347.144 50.4555 345.333 49.5501C344.181 48.9739 342.534 49.797 340.476 52.0193C338.418 54.2417 335.949 58.0279 333.068 63.4603C327.058 74.9013 325.412 81.2391 327.964 82.6383C328.952 83.1322 330.269 82.6383 331.915 81.0745C333.562 79.5106 335.208 77.1236 336.854 73.9959L333.479 72.2674L336.937 65.6827L343.028 68.8927V68.7281Z" fill="white"/>
<path d="M339.242 97.1247L336.278 95.2316L347.885 77.1236L358.505 48.8916L361.88 51.0316L354.224 71.1151L369.042 55.641L371.676 57.3694L350.766 79.0167L339.159 97.1247H339.242Z" fill="white"/>
<path d="M356.611 94.244L360.316 94.8201C357.352 98.9356 356.94 101.816 358.834 103.463C359.739 104.203 360.81 104.286 362.127 103.71C363.444 103.133 364.679 102.063 365.913 100.582C366.819 99.5118 367.56 98.4417 368.054 97.2894C368.548 96.2194 368.712 95.0671 368.383 93.997L367.313 89.7993C366.984 88.4 366.901 87.0008 367.148 85.8484C367.395 84.6138 368.054 83.1322 369.124 81.3214C370.112 79.5106 371.347 77.7821 372.828 75.9713C375.709 72.4321 378.508 70.0451 381.225 68.6458C383.942 67.3289 386 67.2466 387.481 68.3989C388.716 69.3866 389.128 71.0328 388.881 73.3375C388.634 75.6421 387.481 78.1937 385.506 81.1568L381.719 80.8276C383.777 77.5352 384.188 75.3129 382.789 74.2429C381.966 73.5844 380.978 73.5844 379.825 74.1606C378.673 74.7367 377.438 75.7244 376.286 77.1237C374.392 79.346 373.816 81.4861 374.31 83.4615L375.298 87.0831C375.874 89.3054 375.627 91.6101 374.475 93.997C373.322 96.384 371.758 98.771 369.782 101.158C366.572 105.026 363.526 107.66 360.645 108.977C357.764 110.294 355.459 110.294 353.812 108.977C352.413 107.825 351.837 106.014 352.166 103.463C352.495 100.993 353.895 97.8656 356.364 94.0794L356.611 94.244Z" fill="white"/>
<path d="M366.49 119.266L363.938 116.796L393.985 85.7659L390.527 82.3912L396.043 76.7119L405.592 85.9305L400.076 91.6099L396.619 88.2352L366.572 119.266H366.49Z" fill="white"/>
<path d="M379.661 133.588L377.356 130.954L385.506 121.817L380.813 116.55L370.77 123.546L368.877 121.406L411.107 92.0215L413.824 95.0669L379.743 133.505L379.661 133.588ZM390.362 116.22L405.674 99.1001L386.823 112.187L390.362 116.138V116.22Z" fill="white"/>
<path d="M388.881 146.181L386.987 143.629L409.214 118.772C409.214 118.772 410.119 117.784 410.86 116.961C411.19 116.55 411.766 115.973 412.507 115.15L382.295 137.209L380.731 135.069L421.973 105.026L424.114 107.989L403.616 130.871C403.616 130.871 402.217 132.435 399.829 135.069L428.559 114.08L430.123 116.138L388.881 146.181Z" fill="white"/>
<path d="M390.856 149.144L434.898 123.381L438.273 129.225C439.508 131.365 438.438 134.328 434.898 138.115C431.44 141.901 426.501 145.605 420.327 149.226C414.071 152.848 408.473 155.235 403.534 156.387C398.595 157.457 395.302 156.799 393.902 154.33L390.856 149.144ZM399.088 148.321L400.488 150.708C401.229 151.943 403.204 152.272 406.415 151.613C409.625 150.955 413.824 149.062 419.092 146.016C423.373 143.465 426.83 140.995 429.3 138.444C431.852 135.892 432.757 133.999 432.017 132.765L430.452 130.048L399.171 148.321H399.088Z" fill="white"/>
<path d="M405.345 176.964L403.863 173.754L414.318 167.334L411.354 160.997L399.747 164.783L398.595 162.231L447.41 146.263L449.139 149.967L405.427 177.047L405.345 176.964ZM420.574 163.466L440.084 151.449L418.269 158.61L420.492 163.466H420.574Z" fill="white"/>
<path d="M410.696 192.027L409.543 188.735L428.394 179.105L426.83 174.742L407.073 181.739L406.003 178.611L454.161 161.655L456.795 169.145C457.536 171.203 456.795 173.179 454.49 175.072C452.185 176.965 448.974 178.693 444.858 180.093C438.684 182.233 434.075 182.726 430.946 181.492L410.778 192.027H410.696ZM433.828 172.273L435.227 176.142C435.639 177.294 436.544 177.87 438.108 177.952C439.59 177.952 441.483 177.706 443.788 176.882C445.929 176.142 447.493 175.236 448.645 174.249C449.715 173.261 450.127 172.273 449.798 171.285L448.316 167.17L433.828 172.273Z" fill="white"/>
<path d="M411.436 194.743L460.993 182.644L462.557 189.146C463.134 191.533 461.24 194.085 456.795 196.719C452.35 199.353 446.67 201.493 439.59 203.221C432.593 204.95 426.501 205.608 421.397 205.279C416.293 204.95 413.412 203.304 412.754 200.505L411.354 194.661L411.436 194.743ZM419.586 196.225L420.245 198.859C420.574 200.258 422.385 201.164 425.596 201.411C428.806 201.657 433.416 201.081 439.343 199.6C444.2 198.447 448.151 196.966 451.279 195.32C454.408 193.673 455.807 192.11 455.478 190.628L454.737 187.583L419.504 196.143L419.586 196.225Z" fill="white"/>
<path d="M29.306 301.663L28.4005 297.383L47.9927 289.563L46.7579 283.802L26.4248 288.164L25.5193 284.049L74.9114 273.513L76.9694 283.308C77.5457 286.024 76.6401 288.329 74.2528 290.222C71.8656 292.115 68.4904 293.432 64.2098 294.337C57.8711 295.654 53.1789 295.243 50.2153 293.02L29.2237 301.663H29.306ZM53.8374 282.238L54.9076 287.341C55.2369 288.823 56.1424 289.728 57.6242 290.222C59.1059 290.633 61.0816 290.633 63.4689 290.14C65.6092 289.646 67.3379 288.987 68.4904 287.917C69.7252 286.93 70.1368 285.777 69.8899 284.543L68.7374 279.11L53.8374 282.32V282.238Z" fill="white"/>
<path d="M35.1507 320.512L30.6231 306.19L78.7804 291.045L83.2257 305.284L76.0639 307.507L72.8534 297.3L59.7645 301.416L62.3164 309.647L55.3192 311.869L52.7673 303.638L39.2667 307.836L42.5596 318.207L35.0684 320.594L35.1507 320.512Z" fill="white"/>
<path d="M67.091 330.471L43.3004 340.513L42.5596 338.784L48.322 334.998C43.1358 335.739 40.0076 334.751 38.8551 332.2C37.6203 329.319 39.1021 326.109 43.3004 322.652C47.4988 319.195 52.7673 316.149 59.1882 313.433C65.8562 310.635 71.9479 308.989 77.2164 308.659C82.5672 308.33 85.7777 309.565 87.0125 312.446C87.918 314.586 87.2594 316.89 85.2014 319.442C83.0611 321.993 80.0153 324.298 76.1462 326.356L73.4296 323.557C78.8628 320.512 81.0854 317.878 80.0976 315.491C79.439 314.009 77.628 313.351 74.4998 313.516C71.3716 313.68 67.091 314.997 61.4932 317.302C49.7214 322.24 44.5352 326.438 46.017 329.813C46.5932 331.13 47.9927 331.788 50.38 331.788C52.6849 331.788 55.4838 331.13 58.7766 329.813L56.9656 325.368L63.7159 322.487L67.091 330.471Z" fill="white"/>
<path d="M47.5811 348.579L45.6877 344.875L90.7169 321.911L92.6103 325.615L47.5811 348.579Z" fill="white"/>
<path d="M59.2706 345.204L62.975 347.674C58.9413 350.637 57.7065 353.517 59.4352 356.316C60.1761 357.551 61.3286 358.209 62.8103 358.291C64.2921 358.291 65.8562 357.88 67.5026 356.892C68.6551 356.151 69.7252 355.411 70.5484 354.423C71.3716 353.517 71.7832 352.365 71.7009 351.048V345.945C71.5363 344.217 71.7832 342.735 72.3595 341.583C72.9357 340.43 74.0059 339.113 75.4876 337.714C76.9694 336.315 78.6981 334.998 80.6738 333.846C84.5429 331.541 88.0826 330.306 91.2108 330.224C94.339 330.142 96.4793 331.129 97.7141 333.187C98.7019 334.916 98.8666 336.891 98.0434 339.196C97.2202 341.5 95.4091 343.723 92.6926 345.945L88.8235 343.64C91.787 341.171 92.6926 338.949 91.5401 337.056C90.8815 335.903 89.8937 335.409 88.4942 335.409C87.0948 335.409 85.6954 335.903 84.1313 336.891C81.6617 338.373 80.4269 340.348 80.5915 342.735L80.7561 347.18C80.8385 349.896 80.0153 352.283 78.2865 354.258C76.4755 356.234 74.3352 358.044 71.7009 359.608C67.4203 362.16 63.6335 363.395 60.3407 363.395C57.0479 363.395 54.6606 362.242 53.2612 359.855C52.1087 357.88 51.9441 355.658 52.8496 353.106C53.7551 350.554 55.9778 347.92 59.5175 345.122L59.2706 345.204Z" fill="white"/>
<path d="M65.5269 377.387L62.8927 373.766L97.4672 348.744L93.8451 343.723L100.184 339.114L110.062 352.695L103.723 357.304L100.101 352.283L65.5269 377.305V377.387Z" fill="white"/>
<path d="M80.7561 396.071L70.96 384.63L109.321 351.789L119.035 363.065L113.355 367.922L106.358 359.773L95.9854 368.662L101.583 375.247L95.9854 380.021L90.3876 373.436L79.6037 382.655L86.6832 390.886L80.7561 395.989V396.071Z" fill="white"/>
<path d="M96.397 411.463L93.2688 408.418L105.123 390.968L100.925 386.853L86.4362 401.751L83.4727 398.87L118.623 362.572L125.868 369.568C127.843 371.543 128.42 373.93 127.432 376.811C126.444 379.692 124.468 382.738 121.422 385.865C116.895 390.557 112.779 392.779 109.074 392.615L96.4793 411.463H96.397ZM105.946 381.667L109.651 385.289C110.721 386.359 112.038 386.606 113.52 386.112C115.001 385.618 116.565 384.548 118.294 382.82C119.858 381.256 120.846 379.692 121.258 378.211C121.669 376.729 121.422 375.494 120.517 374.589L116.565 370.72L105.946 381.667Z" fill="white"/>
<path d="M111.709 423.892L100.019 414.509L131.63 375.165L143.237 384.466L138.545 390.31L130.148 383.561L121.587 394.261L128.337 399.693L123.727 405.372L116.977 400.022L108.086 411.052L116.565 417.883L111.626 423.974L111.709 423.892Z" fill="white"/>
<path d="M114.754 426.197L142.579 383.972L149.74 388.664C152.375 390.392 153.116 393.849 152.045 398.952C150.975 404.056 148.423 409.653 144.554 415.579C140.603 421.587 136.487 426.032 132.206 428.913C127.926 431.876 124.221 432.288 121.175 430.312L114.837 426.114L114.754 426.197ZM122.41 422.328L125.291 424.221C126.855 425.209 128.996 424.88 131.795 422.987C134.594 421.176 137.639 417.719 140.932 412.616C143.649 408.5 145.46 404.714 146.365 401.175C147.271 397.718 147.024 395.413 145.46 394.425L142.167 392.203L122.41 422.164V422.328Z" fill="white"/>
<path d="M146.283 444.798L142.579 442.905L165.299 397.8L169.003 399.693L146.283 444.798Z" fill="white"/>
<path d="M153.61 435.086L158.055 434.922C156.573 439.695 157.314 442.741 160.277 444.058C161.595 444.634 162.912 444.469 164.147 443.646C165.381 442.741 166.369 441.424 167.11 439.695C167.686 438.379 168.016 437.144 168.098 435.992C168.263 434.757 167.851 433.605 167.028 432.535L163.9 428.501C162.829 427.102 162.171 425.785 161.924 424.468C161.677 423.151 161.759 421.505 162.089 419.53C162.5 417.554 163.076 415.497 163.982 413.357C165.711 409.241 167.851 406.196 170.321 404.22C172.79 402.327 175.177 401.833 177.318 402.739C179.129 403.479 180.446 405.043 181.104 407.43C181.845 409.817 181.681 412.616 180.693 415.99L176.248 416.402C177.153 412.616 176.577 410.311 174.519 409.488C173.366 408.994 172.214 409.159 171.061 409.982C169.991 410.805 169.086 412.04 168.345 413.768C167.192 416.402 167.439 418.707 169.003 420.6L171.802 424.139C173.531 426.279 174.19 428.666 174.025 431.3C173.778 433.934 173.037 436.732 171.885 439.531C169.991 444.14 167.686 447.35 164.97 449.326C162.253 451.301 159.701 451.713 157.149 450.725C155.009 449.82 153.61 448.091 152.786 445.457C152.045 442.823 152.21 439.366 153.445 435.086H153.61Z" fill="white"/>
<path d="M177.812 458.215C174.848 457.309 173.366 454.182 173.202 448.914C173.037 443.564 174.107 437.39 176.248 430.312C178.47 423.316 181.104 417.719 184.315 413.521C187.525 409.323 190.571 407.677 193.37 408.582C196.251 409.488 197.815 412.533 197.98 417.801C198.227 423.069 197.157 429.242 195.017 436.32C192.712 443.811 189.995 449.49 186.867 453.605C183.739 457.639 180.693 459.202 177.812 458.379V458.215ZM180.034 451.218C181.516 451.63 183.08 450.725 184.891 448.502C186.702 446.198 188.678 441.671 190.736 434.839C192.465 429.324 193.37 424.797 193.535 421.422C193.699 418.048 192.876 416.072 191.148 415.496C187.772 414.426 184.15 419.941 180.446 431.876C178.635 437.72 177.729 442.247 177.647 445.539C177.647 448.831 178.388 450.725 179.952 451.218H180.034Z" fill="white"/>
<path d="M223.005 466.693L218.807 466.034L225.146 422.246L212.468 465.047L210.328 464.717V420.023L203.907 463.812L200.532 463.318L207.776 413.356L214.28 414.262V447.185L223.746 415.661L230.25 416.649L223.005 466.61V466.693Z" fill="white"/>
<path d="M246.631 467.598L242.186 467.433L240.704 455.334L231.814 455.005L229.591 466.94H226.051L235.436 416.566L240.54 416.731L246.631 467.433V467.598ZM239.799 448.008L237.165 425.373L233.049 447.762L239.799 448.008Z" fill="white"/>
<path d="M267.294 466.364L263.26 466.611L252.394 435.004C252.229 434.51 251.982 433.769 251.571 432.617C251.406 432.123 251.159 431.382 250.747 430.312L253.217 467.269L249.842 467.516L246.549 417.143L251.159 416.814L261.202 445.951C261.202 445.951 261.943 447.926 263.013 451.301L260.708 416.155L264.001 415.908L267.294 466.281V466.364Z" fill="white"/>
<path d="M290.59 462.66L286.227 463.401L282.441 451.877L273.632 453.359L273.797 465.541L270.257 466.117L269.599 415.003L274.703 414.18L290.59 462.742V462.66ZM280.053 444.881L273.056 423.234L273.385 446.033L280.053 444.963V444.881Z" fill="white"/>
<path d="M303.268 432.617L309.853 457.556L308.042 458.05L305.079 451.795C305.079 457.063 303.679 460.026 300.963 460.767C297.917 461.59 294.953 459.614 292.154 455.005C289.356 450.313 287.051 444.716 285.24 438.049C283.346 431.053 282.605 424.797 283.017 419.53C283.429 414.18 285.075 411.134 288.121 410.311C290.343 409.735 292.566 410.64 294.789 413.11C297.011 415.579 298.822 418.871 300.387 422.987L297.258 425.291C295.036 419.53 292.648 416.896 290.179 417.637C288.615 418.048 287.709 419.777 287.38 422.904C287.133 425.95 287.792 430.477 289.356 436.321C292.648 448.667 296.024 454.346 299.563 453.441C300.963 453.112 301.786 451.712 302.198 449.408C302.527 447.103 302.198 444.222 301.374 440.848L296.764 442.082L294.871 435.004L303.268 432.781V432.617Z" fill="white"/>
<path d="M328.869 450.807L314.793 455.993L297.341 408.582L311.335 403.397L313.969 410.476L303.926 414.179L308.701 427.02L316.768 424.057L319.32 430.971L311.253 433.934L316.11 447.185L326.317 443.399L329.034 450.725L328.869 450.807Z" fill="white"/>
<path d="M352.907 439.366L349.038 441.259L329.446 401.586L343.275 444.058L341.3 445.046L315.945 408.253L335.537 447.926L332.491 449.408L310.1 404.138L315.945 401.257L334.714 428.254L324.589 396.977L330.433 394.096L352.824 439.366H352.907Z" fill="white"/>
<path d="M370.359 428.337L357.681 436.403L330.598 393.767L343.193 385.783L347.227 392.121L338.171 397.882L345.498 409.488L352.742 404.878L356.694 411.052L349.449 415.661L357.023 427.596L366.16 421.752L370.359 428.337Z" fill="white"/>
<path d="M387.399 415.414L384.188 417.883L357.434 397.718C357.434 397.718 356.364 396.895 355.459 396.236C355.047 395.907 354.389 395.413 353.565 394.754L376.203 423.974L373.569 426.032L342.617 386.112L346.239 383.314L370.853 401.915C370.853 401.915 372.581 403.232 375.38 405.29L353.812 377.47L356.447 375.494L387.399 415.414Z" fill="white"/>
<path d="M397.524 406.196L394.232 409.241L365.173 377.964L360.645 382.161L355.294 376.482L367.56 365.041L372.911 370.803L368.383 375L397.442 406.278L397.524 406.196Z" fill="white"/>
<path d="M399.335 387.264L400.488 382.984C404.604 385.865 407.732 386.03 409.79 383.56C410.778 382.408 411.025 381.173 410.531 379.692C410.037 378.293 409.132 376.893 407.65 375.741C406.58 374.836 405.509 374.177 404.357 373.683C403.204 373.189 402.052 373.189 400.735 373.683L395.96 375.494C394.314 376.07 392.832 376.317 391.515 376.152C390.198 375.988 388.634 375.412 386.823 374.506C385.012 373.519 383.201 372.366 381.472 370.885C378.014 368.004 375.709 365.041 374.639 362.16C373.569 359.197 373.734 356.81 375.298 354.999C376.615 353.435 378.426 352.694 380.896 352.777C383.365 352.777 386.082 353.764 388.963 355.657L388.058 360.102C384.765 358.127 382.377 357.962 380.896 359.691C380.072 360.678 379.908 361.831 380.319 363.148C380.813 364.465 381.719 365.699 383.118 366.852C385.341 368.745 387.564 369.238 389.869 368.333L394.067 366.687C396.619 365.699 399.088 365.699 401.558 366.687C404.028 367.675 406.415 369.238 408.802 371.214C412.589 374.424 415.059 377.552 416.129 380.679C417.199 383.807 416.87 386.441 415.141 388.499C413.659 390.227 411.601 391.133 408.802 391.05C406.086 391.05 402.875 389.816 399.088 387.347L399.335 387.264Z" fill="white"/>
<path d="M428.147 370.391L425.596 374.013L408.226 361.749L379.826 351.378L382.707 347.262L402.875 354.835L388.881 338.537L391.186 335.245L410.696 358.209L428.065 370.473L428.147 370.391Z" fill="white"/>
<path d="M421.726 358.538L422.138 354.094C426.748 356.234 429.794 355.822 431.44 353.024C432.181 351.707 432.181 350.472 431.44 349.073C430.699 347.756 429.547 346.604 427.901 345.616C426.666 344.957 425.513 344.463 424.278 344.134C423.126 343.887 421.891 344.134 420.739 344.71L416.293 347.262C414.812 348.167 413.412 348.579 412.095 348.661C410.778 348.661 409.132 348.497 407.238 347.838C405.262 347.18 403.369 346.274 401.393 345.204C397.524 342.9 394.725 340.43 393.161 337.714C391.597 334.998 391.433 332.611 392.585 330.553C393.573 328.825 395.302 327.755 397.771 327.425C400.159 327.014 403.04 327.508 406.25 328.907L406.086 333.434C402.464 332.035 400.076 332.282 399.006 334.257C398.348 335.409 398.348 336.562 399.006 337.714C399.665 338.866 400.817 339.936 402.381 340.842C404.851 342.323 407.156 342.406 409.214 341.089L413.083 338.784C415.388 337.385 417.857 336.973 420.492 337.549C423.126 338.126 425.76 339.196 428.394 340.76C432.675 343.229 435.639 345.945 437.203 348.908C438.767 351.789 438.931 354.423 437.532 356.81C436.38 358.785 434.486 360.02 431.77 360.431C429.053 360.843 425.678 360.184 421.562 358.456L421.726 358.538Z" fill="white"/>
<path d="M446.916 337.715L445.023 341.748L406.497 323.393L403.863 328.99L396.783 325.615L404.028 310.47L411.107 313.845L408.473 319.442L446.999 337.797L446.916 337.715Z" fill="white"/>
<path d="M455.972 315.326L450.621 329.401L403.369 311.458L408.638 297.547L415.635 300.181L411.848 310.223L424.608 315.079L427.654 307.013L434.486 309.647L431.44 317.713L444.694 322.734L448.563 312.61L455.889 315.408L455.972 315.326Z" fill="white"/>
<path d="M463.134 289.481L462.063 293.597L419.257 282.403L460.417 299.852L459.841 301.992L415.388 296.971L458.194 308.165L457.289 311.458L408.391 298.618L410.037 292.28L442.718 295.819L412.507 282.979L414.153 276.641L463.051 289.481H463.134Z" fill="white"/>
<path d="M186.373 139.843L191.724 149.556L186.702 154.33C188.102 155.564 189.254 156.963 190.16 158.692C190.983 160.338 191.724 162.478 192.135 165.112C192.382 166.347 192.547 167.334 192.794 167.911C192.959 168.322 193.206 168.734 193.699 169.31L195.264 167.417L195.84 168.24L192.053 172.767C191.312 172.108 190.736 171.368 190.407 170.627C190.16 170.133 189.748 168.322 189.09 165.359C188.76 163.795 188.266 162.396 187.772 161.326C187.279 160.173 186.702 159.35 186.126 158.774C185.55 158.198 184.727 157.704 183.739 157.21L182.669 158.198V167.417C183.656 167.828 184.644 168.487 185.632 169.31L187.279 167.252L187.772 167.993L183.739 172.684C182.257 171.614 181.022 170.874 179.87 170.462C178.8 170.051 177.647 169.804 176.577 169.804C175.177 169.804 173.86 170.133 172.543 170.791C171.885 171.121 171.144 171.779 170.321 172.684L169.909 172.191C170.979 170.298 171.967 168.898 173.037 168.075C174.107 167.17 175.342 166.594 176.906 166.264V165.277C176.906 163.877 176.742 162.643 176.495 161.737C176.248 160.832 175.754 159.844 175.095 158.857C174.437 157.869 173.696 157.046 172.955 156.387C172.461 155.976 171.802 155.564 170.897 155.153V154.247C171.72 153.836 172.79 153.013 174.025 151.778L176.988 148.979C176.988 147.086 176.906 145.687 176.742 144.864C176.577 144.041 176.165 143.382 175.671 142.806C175.095 142.23 174.519 141.983 173.86 141.983C173.449 141.983 173.119 142.065 172.708 142.23C172.379 142.395 171.967 142.724 171.473 143.218L170.979 142.724C171.802 141.572 172.543 140.749 173.202 140.337C173.86 139.925 174.684 139.679 175.589 139.679C176.659 139.679 177.565 140.008 178.306 140.584C179.046 141.16 179.54 141.983 179.87 143.053C180.034 143.712 180.199 144.617 180.199 145.769L186.538 139.596L186.373 139.843ZM176.824 150.379L173.366 153.671C174.025 154.083 174.601 154.576 175.013 154.988C175.424 155.4 176.083 156.14 176.824 157.21V150.379ZM181.928 145.358L180.034 147.169V166.347C180.693 166.511 181.269 166.676 181.928 166.923V145.358ZM184.233 143.053L182.586 144.699V156.963L188.678 151.202L184.233 143.135V143.053Z" fill="#898989"/>
<path d="M204.072 149.144L208.435 156.387L201.438 163.301V167.334L205.06 169.392L207.529 167.005L207.859 167.664L202.837 172.684C201.767 171.861 200.944 171.368 200.285 171.038C199.627 170.709 198.639 170.38 197.404 169.968V169.392C197.404 169.392 197.98 168.734 198.145 168.322C198.227 167.911 198.309 166.923 198.309 165.524V152.848C199.297 152.354 200.12 151.86 200.779 151.449C201.273 151.119 202.343 150.379 204.072 149.144ZM201.685 151.696L201.438 151.86V161.902L205.554 157.786L201.685 151.696Z" fill="#898989"/>
<path d="M216.831 149.144L221.688 152.354L224.57 150.296V155.235L221.771 154.494V164.536C221.771 166.182 221.771 167.252 221.935 167.828C222.1 168.569 222.512 169.474 223.005 170.462C223.911 172.108 224.323 173.261 224.323 174.001C224.323 174.742 224.076 175.401 223.582 176.059C223.088 176.718 221.853 177.705 219.795 179.105C219.136 178.775 218.478 178.528 217.819 178.281C217.161 178.117 216.585 178.035 216.008 178.035C214.609 178.035 213.045 178.364 211.234 179.105L210.987 178.364L214.691 172.273L210.987 168.487V152.436C213.045 151.778 214.938 150.708 216.667 149.226L216.831 149.144ZM213.95 174.989C215.267 174.66 216.42 174.495 217.243 174.495C217.984 174.495 218.725 174.66 219.548 174.907C220.289 175.154 221.112 175.648 221.853 176.224L222.512 175.648C221.112 173.754 220.124 172.273 219.63 171.121C219.136 169.968 218.807 168.734 218.643 167.334L213.95 174.907V174.989ZM218.643 154.412L214.362 152.354V166.841L216.667 169.227L218.643 165.935V154.412Z" fill="#898989"/>
<path d="M229.262 149.144L232.061 152.437L230.826 154.165V166.182C230.826 167.417 230.826 168.24 231.073 168.651C231.238 169.063 231.402 169.228 231.567 169.228C231.649 169.228 231.814 169.228 231.896 169.145C232.061 169.063 232.308 168.734 232.719 168.24L233.131 168.898L229.756 172.767C228.933 171.944 228.356 171.121 228.109 170.38C227.862 169.639 227.78 168.322 227.78 166.511V154.165L226.628 152.437L229.344 149.144H229.262ZM230.414 141.572H232.39L230.25 146.346H229.673L230.497 141.572H230.414Z" fill="#898989"/>
<path d="M243.339 157.293L246.961 160.009V169.31C246.055 169.392 245.314 169.722 244.573 170.215C243.832 170.709 243.092 171.532 242.186 172.685C241.445 172.026 240.787 171.615 240.21 171.368C239.634 171.121 239.058 170.956 238.399 170.956C237.412 170.956 236.588 171.368 235.765 172.191C235.518 172.52 235.271 172.685 235.189 172.685C235.107 172.685 234.942 172.602 234.86 172.438C234.777 172.273 234.695 172.109 234.695 171.944C234.695 171.779 234.777 171.532 235.024 171.203C235.189 171.038 235.354 170.709 235.683 170.215L237.082 167.746L239.058 163.96L235.683 161.326V153.095C236.753 152.601 237.576 152.107 238.235 151.531C238.811 150.955 239.47 150.132 239.963 149.144C241.281 149.967 242.351 150.461 243.174 150.79C243.75 151.037 244.326 151.12 244.82 151.12C245.397 151.12 245.891 150.955 246.22 150.544C246.549 150.214 246.714 149.803 246.714 149.391C246.714 149.144 246.631 148.897 246.384 148.568C245.973 148.074 245.808 147.58 245.808 147.087C245.808 146.593 245.891 146.263 246.055 146.017C246.22 145.77 246.467 145.605 246.631 145.605C246.878 145.605 247.208 145.77 247.455 146.181C247.702 146.593 247.784 147.087 247.784 147.663C247.784 148.239 247.702 148.897 247.537 149.556C247.372 150.132 246.961 150.955 246.467 151.943L243.421 157.375L243.339 157.293ZM241.445 160.832L237.658 167.993C238.152 167.746 238.564 167.582 238.976 167.499C239.387 167.417 239.716 167.335 240.046 167.335C241.281 167.335 242.515 167.911 243.75 168.981V162.561L241.445 160.75V160.832ZM238.729 158.857L240.869 160.421L244.244 154C243.586 154.247 242.927 154.412 242.433 154.412C241.116 154.412 239.881 153.836 238.729 152.601V158.857Z" fill="#898989"/>
<path d="M249.266 151.531L253.629 143.876H254.123L253.958 149.967H257.086V152.437H253.958V167.335L255.687 169.145L256.674 168.075L257.086 168.734L253.629 172.602C252.476 170.874 251.159 169.722 249.677 169.145V168.734C249.677 168.734 250.336 167.911 250.5 167.499C250.665 166.923 250.747 166.182 250.747 165.112V152.437H249.266V151.449V151.531Z" fill="#898989"/>
<path d="M265.4 149.144L269.763 156.387L262.766 163.301V167.334L266.388 169.392L268.858 167.005L269.187 167.664L264.166 172.684C263.095 171.861 262.272 171.368 261.614 171.038C260.955 170.709 259.967 170.38 258.732 169.968V169.392C258.732 169.392 259.309 168.734 259.473 168.322C259.556 167.911 259.638 166.923 259.638 165.524V152.848C260.626 152.354 261.449 151.86 262.108 151.449C262.602 151.119 263.672 150.379 265.4 149.144ZM263.013 151.696L262.766 151.86V161.902L266.882 157.786L263.013 151.696Z" fill="#898989"/>
<path d="M279.971 149.144L282.358 153.177L279.971 156.14L277.995 152.601L276.431 154.577V167.417L278.242 169.228L279.889 167.417L280.218 168.158L276.184 172.685C275.361 171.614 274.62 170.874 274.044 170.38C273.468 169.886 272.809 169.557 272.151 169.31V168.816C272.645 168.322 272.892 167.911 273.056 167.417C273.221 166.923 273.303 166.1 273.303 164.783V155.729C273.303 154.577 273.221 153.836 273.056 153.424C272.892 153.013 272.645 152.848 272.48 152.848C272.233 152.848 271.904 153.177 271.492 153.753L271.081 153.095L274.373 149.062C275.279 150.05 275.855 150.873 276.184 151.531C276.349 151.943 276.514 152.601 276.514 153.342L280.053 148.979L279.971 149.144Z" fill="#898989"/>
<path d="M290.755 149.144L295.118 156.387L288.121 163.301V167.334L291.743 169.392L294.212 167.005L294.542 167.664L289.52 172.684C288.45 171.861 287.627 171.368 286.968 171.038C286.31 170.709 285.322 170.38 284.087 169.968V169.392C284.087 169.392 284.663 168.734 284.828 168.322C284.91 167.911 284.993 166.923 284.993 165.524V152.848C285.98 152.354 286.804 151.86 287.462 151.449C287.956 151.119 289.026 150.379 290.755 149.144ZM288.368 151.696L288.121 151.86V161.902L292.237 157.786L288.368 151.696Z" fill="#898989"/>
<path d="M296.271 141.572L306.89 151.943C307.054 151.366 307.219 150.955 307.466 150.708C307.631 150.461 307.96 150.132 308.372 149.885V150.79C308.372 150.79 308.042 151.531 307.96 151.86C307.96 152.189 307.878 152.848 307.878 153.836V168.734C306.561 169.474 305.573 170.051 304.914 170.544C304.256 171.038 303.597 171.779 302.856 172.684C301.621 171.532 300.551 170.709 299.563 170.215C298.575 169.721 297.588 169.31 296.517 169.145V168.734C296.929 168.24 297.094 167.828 297.258 167.334C297.341 166.84 297.423 165.935 297.423 164.453V152.848C298.822 152.272 299.893 151.613 300.469 150.955L296.353 146.922V141.489L296.271 141.572ZM304.749 155.07L301.539 151.943C301.539 151.943 300.963 152.519 300.633 152.766V166.429L304.749 168.981V154.988V155.07Z" fill="#898989"/>
<path d="M126.855 305.778H129.819V320.347H126.855V305.778Z" fill="#898989"/>
<path d="M143.978 309.071L141.426 309.812C141.097 309.071 140.768 308.495 140.274 308.083C139.78 307.754 139.121 307.507 138.298 307.507C137.557 307.507 136.899 307.672 136.487 308.083C136.075 308.495 135.828 308.906 135.828 309.4C135.828 309.976 136.075 310.388 136.569 310.717C137.063 311.046 137.969 311.376 139.45 311.869C140.685 312.281 141.591 312.61 142.249 312.939C142.908 313.269 143.402 313.763 143.813 314.339C144.225 314.915 144.39 315.573 144.39 316.314C144.39 317.549 143.813 318.536 142.826 319.442C141.755 320.265 140.274 320.759 138.38 320.759C135.087 320.759 133.029 319.36 132.206 316.726L134.841 316.149C135.334 317.96 136.487 318.866 138.463 318.866C139.368 318.866 140.109 318.701 140.603 318.29C141.097 317.878 141.344 317.384 141.344 316.808C141.344 316.396 141.179 315.985 140.85 315.573C140.521 315.244 139.697 314.833 138.298 314.421C136.816 314.009 135.828 313.598 135.17 313.269C134.511 312.939 134.017 312.528 133.523 311.952C133.112 311.376 132.865 310.717 132.865 309.894C132.865 308.742 133.359 307.754 134.347 307.013C135.334 306.19 136.652 305.861 138.298 305.861C141.179 305.861 143.073 307.013 143.896 309.4L143.978 309.071Z" fill="#898989"/>
<path d="M159.372 313.104C159.372 315.573 158.796 317.466 157.726 318.701C156.655 319.935 155.009 320.594 152.951 320.594C150.893 320.594 149.247 319.935 148.176 318.701C147.106 317.466 146.53 315.573 146.53 313.021C146.53 310.47 147.106 308.659 148.176 307.424C149.247 306.107 150.893 305.531 152.951 305.531C155.009 305.531 156.655 306.19 157.726 307.424C158.796 308.659 159.372 310.552 159.372 313.021V313.104ZM156.244 313.104C156.244 311.375 155.997 309.976 155.503 308.988C155.009 308.001 154.103 307.507 152.951 307.507C151.798 307.507 150.811 308.001 150.317 308.988C149.823 309.976 149.576 311.375 149.576 313.021C149.576 314.668 149.823 316.067 150.317 317.055C150.811 318.042 151.716 318.536 152.951 318.536C154.186 318.536 155.009 318.042 155.503 317.055C155.997 316.067 156.244 314.75 156.244 312.939V313.104Z" fill="#898989"/>
<path d="M177.976 309.071L175.424 309.812C175.095 309.071 174.766 308.495 174.272 308.083C173.778 307.754 173.119 307.507 172.296 307.507C171.555 307.507 170.897 307.672 170.485 308.083C170.074 308.495 169.827 308.906 169.827 309.4C169.827 309.976 170.074 310.388 170.567 310.717C171.061 311.046 171.967 311.376 173.449 311.869C174.684 312.281 175.589 312.61 176.248 312.939C176.906 313.269 177.4 313.763 177.812 314.339C178.223 314.915 178.388 315.573 178.388 316.314C178.388 317.549 177.812 318.536 176.824 319.442C175.754 320.265 174.272 320.759 172.379 320.759C169.086 320.759 167.028 319.36 166.205 316.726L168.839 316.149C169.333 317.96 170.485 318.866 172.461 318.866C173.366 318.866 174.107 318.701 174.601 318.29C175.095 317.878 175.342 317.384 175.342 316.808C175.342 316.396 175.177 315.985 174.848 315.573C174.519 315.244 173.696 314.833 172.296 314.421C170.814 314.009 169.827 313.598 169.168 313.269C168.509 312.939 168.016 312.528 167.522 311.952C167.11 311.376 166.863 310.717 166.863 309.894C166.863 308.742 167.357 307.754 168.345 307.013C169.333 306.19 170.65 305.861 172.296 305.861C175.177 305.861 177.071 307.013 177.894 309.4L177.976 309.071Z" fill="#898989"/>
<path d="M179.293 309.565H182.01L184.315 316.973L186.702 309.565H189.172L184.891 321.006C184.562 321.829 184.315 322.487 183.986 322.817C183.739 323.228 183.327 323.557 182.833 323.804C182.339 324.051 181.763 324.133 180.94 324.133C180.446 324.133 180.034 324.133 179.54 323.969V322.24C179.54 322.24 180.199 322.24 180.528 322.24C181.269 322.24 181.763 322.076 182.01 321.829C182.339 321.582 182.669 320.923 182.998 319.853L179.211 309.482L179.293 309.565Z" fill="#898989"/>
<path d="M198.721 312.116L196.581 312.61C196.169 311.54 195.428 310.964 194.358 310.964C193.864 310.964 193.453 311.129 193.123 311.376C192.794 311.622 192.629 311.952 192.629 312.363C192.629 312.775 192.794 313.104 193.123 313.269C193.453 313.433 194.193 313.68 195.264 314.009C196.663 314.421 197.651 314.833 198.309 315.244C198.968 315.656 199.215 316.396 199.215 317.219C199.215 318.207 198.803 318.948 197.898 319.606C196.992 320.265 195.84 320.594 194.358 320.594C191.559 320.594 189.913 319.524 189.583 317.466L191.888 317.137C192.218 318.372 193.041 319.03 194.44 319.03C195.181 319.03 195.675 318.866 196.004 318.619C196.334 318.372 196.498 317.96 196.498 317.631C196.498 317.384 196.334 317.055 196.169 316.808C195.922 316.561 195.264 316.232 194.193 315.985C193.123 315.738 192.382 315.491 191.806 315.244C191.312 314.997 190.818 314.668 190.489 314.256C190.16 313.845 189.995 313.269 189.995 312.775C189.995 311.869 190.407 311.046 191.23 310.47C192.053 309.812 193.123 309.482 194.44 309.482C196.663 309.482 198.062 310.388 198.721 312.281V312.116Z" fill="#898989"/>
<path d="M202.014 306.766L204.483 306.602V309.565H207.035V311.376H204.483V316.149C204.483 316.973 204.483 317.549 204.483 317.796C204.483 318.043 204.648 318.289 204.977 318.454C205.224 318.619 205.718 318.701 206.294 318.701C206.624 318.701 206.953 318.701 207.365 318.701V320.512C206.624 320.676 205.965 320.676 205.307 320.676C204.319 320.676 203.496 320.512 202.919 320.183C202.343 319.853 202.014 319.442 201.849 318.866C201.685 318.289 201.602 317.466 201.602 316.314V311.376H199.874V309.565H201.685L201.849 306.766H202.014Z" fill="#898989"/>
<path d="M218.643 315.326H211.151C211.151 316.808 211.398 317.713 211.892 318.207C212.386 318.701 212.962 318.948 213.703 318.948C214.938 318.948 215.679 318.289 216.008 316.972L218.56 317.219C217.902 319.524 216.255 320.676 213.621 320.676C212.057 320.676 210.74 320.182 209.752 319.277C208.764 318.372 208.352 316.972 208.352 315.162C208.352 313.351 208.846 311.869 209.834 310.881C210.822 309.894 212.057 309.4 213.703 309.4C214.856 309.4 215.761 309.647 216.585 310.141C217.408 310.635 217.902 311.293 218.231 312.116C218.56 312.939 218.725 314.009 218.725 315.326H218.643ZM215.844 313.762C215.844 311.869 215.103 310.881 213.539 310.881C212.139 310.881 211.316 311.787 211.151 313.762H215.761H215.844Z" fill="#898989"/>
<path d="M220.947 309.565H223.499V311.211C224.158 309.976 225.228 309.318 226.792 309.318C228.439 309.318 229.509 309.976 229.838 311.293C230.497 309.976 231.567 309.318 233.213 309.318C234.036 309.318 234.695 309.482 235.271 309.729C235.847 309.976 236.177 310.388 236.424 310.882C236.588 311.376 236.753 312.199 236.753 313.516V320.347H234.036V313.763C234.036 312.775 233.954 312.034 233.707 311.705C233.46 311.376 233.049 311.129 232.39 311.129C230.991 311.129 230.332 312.116 230.332 314.092V320.43H227.615V313.927C227.615 313.022 227.615 312.363 227.451 312.116C227.368 311.869 227.204 311.623 226.957 311.458C226.71 311.293 226.381 311.211 225.969 311.211C225.228 311.211 224.652 311.458 224.323 311.869C223.993 312.363 223.829 313.104 223.829 314.174V320.43H221.112V309.647L220.947 309.565Z" fill="#898989"/>
<path d="M253.876 315.491L256.592 315.82C256.016 319.03 254.04 320.676 250.747 320.676C248.525 320.676 246.961 320.018 245.891 318.619C244.82 317.302 244.326 315.409 244.326 313.186C244.326 310.717 244.903 308.824 246.055 307.589C247.208 306.272 248.772 305.614 250.912 305.614C254.205 305.614 256.098 307.26 256.674 310.552L253.958 310.882C253.629 308.659 252.641 307.589 250.912 307.589C248.607 307.589 247.455 309.482 247.455 313.351C247.455 316.89 248.607 318.701 250.912 318.701C251.818 318.701 252.558 318.454 252.97 317.878C253.382 317.302 253.711 316.561 253.958 315.491H253.876Z" fill="#898989"/>
<path d="M268.611 315.326H261.12C261.12 316.808 261.367 317.713 261.861 318.207C262.355 318.701 262.931 318.948 263.672 318.948C264.906 318.948 265.647 318.289 265.977 316.972L268.446 317.219C267.788 319.524 266.141 320.676 263.507 320.676C261.861 320.676 260.626 320.182 259.638 319.277C258.65 318.372 258.239 316.972 258.239 315.162C258.239 313.351 258.732 311.869 259.72 310.881C260.708 309.894 261.943 309.4 263.589 309.4C264.742 309.4 265.647 309.647 266.471 310.141C267.294 310.635 267.788 311.293 268.117 312.116C268.446 312.939 268.611 314.009 268.611 315.326ZM265.812 313.762C265.812 311.869 265.071 310.881 263.507 310.881C262.108 310.881 261.284 311.787 261.12 313.762H265.73H265.812Z" fill="#898989"/>
<path d="M270.916 309.565H273.303V311.952C274.044 310.223 275.114 309.318 276.596 309.318C276.761 309.318 276.925 309.318 277.09 309.318V311.623C277.09 311.623 276.678 311.623 276.514 311.623C274.538 311.623 273.55 312.693 273.55 314.833V320.347H270.834V309.565H270.916Z" fill="#898989"/>
<path d="M279.806 306.766L282.276 306.602V309.565H284.828V311.376H282.276V316.149C282.276 316.973 282.276 317.549 282.276 317.796C282.276 318.043 282.441 318.289 282.77 318.454C283.017 318.619 283.511 318.701 284.087 318.701C284.416 318.701 284.746 318.701 285.157 318.701V320.512C284.416 320.676 283.758 320.676 283.099 320.676C282.111 320.676 281.288 320.512 280.712 320.183C280.136 319.853 279.806 319.442 279.642 318.866C279.477 318.289 279.395 317.466 279.395 316.314V311.376H277.666V309.565H279.477L279.642 306.766H279.806Z" fill="#898989"/>
<path d="M289.52 308.165H286.639V305.778H289.52V308.165ZM286.639 309.565H289.356V320.347H286.639V309.565Z" fill="#898989"/>
<path d="M295.694 309.564H298.082V311.375H295.694V320.347H292.978V311.375H291.249V309.564H292.978C292.978 308.248 293.142 307.424 293.389 306.931C293.636 306.437 294.048 306.025 294.624 305.778C295.2 305.531 295.941 305.367 296.929 305.367C297.505 305.367 297.999 305.367 298.575 305.531V307.26C298.575 307.26 297.835 307.26 297.505 307.26C296.929 307.26 296.6 307.342 296.271 307.507C296.024 307.671 295.859 307.836 295.777 308.165C295.777 308.412 295.694 308.906 295.694 309.647V309.564Z" fill="#898989"/>
<path d="M302.856 308.165H299.975V305.778H302.856V308.165ZM299.975 309.565H302.691V320.347H299.975V309.565Z" fill="#898989"/>
<path d="M315.204 313.186L312.57 313.433C312.405 312.528 312.241 311.869 311.911 311.54C311.582 311.211 311.17 311.046 310.594 311.046C309.771 311.046 309.195 311.375 308.783 311.952C308.372 312.528 308.207 313.598 308.207 315.162C308.207 317.549 308.948 318.701 310.512 318.701C311.747 318.701 312.405 317.96 312.488 316.396L315.122 316.561C314.793 319.195 313.146 320.512 310.265 320.512C308.536 320.512 307.301 320.018 306.478 319.03C305.655 318.042 305.243 316.643 305.243 314.915C305.243 313.104 305.655 311.622 306.561 310.717C307.466 309.729 308.701 309.235 310.43 309.235C313.146 309.235 314.71 310.552 315.122 313.104L315.204 313.186Z" fill="#898989"/>
<path d="M319.485 312.61L316.851 312.363C317.015 311.376 317.591 310.635 318.497 310.141C319.402 309.647 320.555 309.318 321.872 309.318C323.025 309.318 324.012 309.482 324.753 309.894C325.494 310.306 325.906 310.717 326.07 311.293C326.235 311.787 326.317 312.61 326.317 313.68V317.384C326.317 318.866 326.317 319.853 326.564 320.347H324.012C324.012 320.347 323.848 319.36 323.848 318.536C323.025 319.936 321.79 320.594 320.143 320.594C318.991 320.594 318.168 320.347 317.427 319.771C316.768 319.195 316.439 318.454 316.439 317.466C316.439 316.314 316.933 315.326 317.921 314.668C318.909 314.009 320.637 313.68 323.107 313.68C323.272 313.68 323.436 313.68 323.683 313.68V313.269C323.683 312.528 323.518 311.952 323.272 311.54C323.025 311.129 322.448 310.964 321.79 310.964C320.555 310.964 319.896 311.54 319.649 312.61H319.485ZM323.601 315.079C323.601 315.079 322.942 315.079 322.778 315.079C320.39 315.079 319.238 315.82 319.238 317.384C319.238 318.454 319.814 319.03 321.049 319.03C321.707 319.03 322.366 318.701 322.86 318.125C323.354 317.549 323.683 316.726 323.683 315.656V315.162L323.601 315.079Z" fill="#898989"/>
<path d="M329.857 306.766L332.327 306.602V309.565H334.879V311.376H332.327V316.149C332.327 316.973 332.327 317.549 332.327 317.796C332.327 318.043 332.574 318.289 332.821 318.454C333.068 318.619 333.562 318.701 334.138 318.701C334.467 318.701 334.796 318.701 335.208 318.701V320.512C334.467 320.676 333.809 320.676 333.15 320.676C332.162 320.676 331.339 320.512 330.763 320.183C330.186 319.853 329.857 319.442 329.692 318.866C329.528 318.289 329.446 317.466 329.446 316.314V311.376H327.717V309.565H329.528L329.692 306.766H329.857Z" fill="#898989"/>
<path d="M339.571 308.165H336.69V305.778H339.571V308.165ZM336.69 309.565H339.406V320.347H336.69V309.565Z" fill="#898989"/>
<path d="M352.495 314.833C352.495 318.701 350.766 320.594 347.227 320.594C345.58 320.594 344.346 320.1 343.44 319.195C342.534 318.29 342.041 316.808 342.041 314.915C342.041 311.129 343.769 309.318 347.309 309.318C348.873 309.318 350.19 309.812 351.096 310.717C352.001 311.623 352.495 313.022 352.495 314.833ZM349.532 314.997C349.532 313.516 349.367 312.446 348.873 311.869C348.462 311.293 347.885 311.046 347.227 311.046C345.663 311.046 344.922 312.363 344.922 314.997C344.922 316.314 345.086 317.302 345.498 317.96C345.827 318.619 346.486 318.948 347.309 318.948C348.132 318.948 348.708 318.619 349.038 317.96C349.367 317.302 349.614 316.314 349.614 314.997H349.532Z" fill="#898989"/>
<path d="M355.047 309.565H357.599V311.211C358.175 309.894 359.328 309.318 360.892 309.318C361.797 309.318 362.538 309.482 363.032 309.812C363.608 310.141 363.938 310.553 364.102 311.046C364.267 311.54 364.349 312.281 364.349 313.351V320.265H361.633V313.433C361.633 312.528 361.55 311.869 361.303 311.54C361.139 311.211 360.645 311.046 359.986 311.046C359.328 311.046 358.752 311.293 358.34 311.705C357.928 312.116 357.764 313.022 357.764 314.256V320.265H355.047V309.482V309.565Z" fill="#898989"/>
<path d="M43.4651 252.689C44.4529 250.714 45.1938 247.915 45.6877 244.294C45.3584 244.458 44.9468 244.787 44.4529 245.117C42.5596 246.351 40.9955 247.75 39.843 249.397L36.3855 247.339L38.1966 243.141C39.1021 243.47 40.1723 243.717 41.4071 243.717C42.5596 243.717 43.8767 243.553 45.3584 243.141C43.959 241.577 42.8888 240.425 41.9833 239.602C41.4071 239.19 40.6662 238.614 39.596 238.038L40.1723 233.429L44.0413 234.252C44.0413 235.322 44.206 236.474 44.5352 237.709C44.8645 238.943 45.3584 240.59 46.1816 242.483C47.5811 239.355 48.322 236.556 48.4043 234.252L52.191 233.429L52.7673 238.038C51.6971 238.532 50.8739 239.108 50.2977 239.602C49.2275 240.507 48.1573 241.66 47.0048 243.059C48.6513 243.388 49.9684 243.635 51.0385 243.635C52.438 243.635 53.5081 243.47 54.1667 243.059L55.9778 247.257L52.438 249.314C51.5325 247.915 49.6391 246.187 46.6756 244.211C47.0048 246.434 47.2518 248.08 47.4988 248.985C47.9104 250.549 48.322 251.701 48.8159 252.607L46.0993 255.981L43.4651 252.607V252.689Z" fill="white"/>
<path d="M438.108 250.713C439.096 248.738 439.837 245.94 440.331 242.318C440.002 242.483 439.59 242.812 439.096 243.141C437.203 244.376 435.639 245.775 434.486 247.421L431.029 245.363L432.84 241.166C433.745 241.495 434.815 241.742 436.05 241.742C437.203 241.742 438.52 241.577 440.002 241.166C438.602 239.602 437.532 238.449 436.626 237.626C436.133 237.215 435.309 236.639 434.239 236.062L434.815 231.453L438.684 232.276C438.684 233.346 438.849 234.499 439.178 235.733C439.508 236.968 440.002 238.614 440.825 240.507C442.224 237.379 442.965 234.581 443.047 232.276L446.834 231.453L447.41 236.062C446.34 236.556 445.517 237.132 444.941 237.626C443.871 238.532 442.8 239.766 441.648 241.083C443.294 241.413 444.612 241.659 445.682 241.659C447.081 241.659 448.151 241.495 448.81 241.083L450.621 245.281L447.081 247.339C446.176 245.94 444.282 244.211 441.319 242.236C441.648 244.458 441.895 246.104 442.142 247.01C442.554 248.573 443.047 249.726 443.459 250.631L440.742 254.006L438.108 250.631V250.713Z" fill="white"/>
<path d="M675.931 381.256H1036V15.6387H675.931V381.256ZM731.827 296.23H695.03V100.664H731.827V296.313V296.23ZM855.883 296.23L845.182 253.924H784.347L772.905 296.23H736.354L791.838 100.335H837.691L892.351 296.23H855.801H855.883ZM957.796 298.947C926.267 298.947 896.714 281.086 885.766 252.607L916.142 239.026C924.95 257.463 936.392 269.645 958.043 269.645C976.482 269.645 990.559 262.566 990.559 243.635C990.559 205.197 891.281 212.769 891.281 152.601C891.281 117.62 920.093 97.8655 953.433 97.8655C984.385 97.8655 1009.99 113.587 1021.43 142.065L987.843 152.601C982.245 137.456 970.802 127.168 953.433 127.168C937.463 127.168 925.938 133.67 925.938 148.815C925.938 182.397 1025.22 175.401 1025.22 238.779C1025.22 278.863 1000.44 298.947 957.713 298.947" fill="#005A3E"/>
<path d="M815.053 138.032L792.332 223.14H837.197L815.546 138.032H815.053Z" fill="#005A3E"/>
<path d="M696.676 394.754L709.106 452.042H703.015L699.64 435.086H685.234L681.858 452.042H675.767L688.197 394.754H696.676ZM686.139 429.818H698.816L692.56 399.034H692.395L686.139 429.818Z" fill="#005A3E"/>
<path d="M738.989 412.04C738.248 402.986 735.367 399.199 730.592 399.199C723.512 399.199 720.384 405.537 720.384 423.398C720.384 441.259 723.512 447.597 730.592 447.597C736.272 447.597 739.565 443.646 739.73 433.028H745.821C745.657 445.704 740.223 452.865 730.592 452.865C720.549 452.865 714.293 445.128 714.293 423.398C714.293 401.669 720.549 393.932 730.592 393.932C738.989 393.932 744.093 399.776 745.08 412.04H738.989Z" fill="#005A3E"/>
<path d="M779.079 412.04C778.338 402.986 775.457 399.199 770.682 399.199C763.602 399.199 760.474 405.537 760.474 423.398C760.474 441.259 763.602 447.597 770.682 447.597C776.362 447.597 779.655 443.646 779.819 433.028H785.911C785.747 445.704 780.313 452.865 770.682 452.865C761.05 452.865 754.383 445.128 754.383 423.398C754.383 401.669 760.639 393.932 770.682 393.932C779.079 393.932 784.182 399.776 785.17 412.04H779.079Z" fill="#005A3E"/>
<path d="M795.707 394.754H809.29C818.345 394.754 824.766 400.187 824.766 409.57C824.766 415.99 821.967 421.423 815.711 423.645L825.26 452.042H818.839L809.784 424.88L801.799 425.209V452.042H795.707V394.754ZM801.799 419.859H807.15C815.876 419.859 818.757 416.402 818.757 409.899C818.757 403.397 815.958 399.94 807.15 399.94H801.799V419.776V419.859Z" fill="#005A3E"/>
<path d="M860.823 394.754V400.022H841.148V419.529H855.636V424.797H841.148V446.856H861.728V452.124H835.056V394.754H860.823Z" fill="#005A3E"/>
<path d="M870.619 394.754H881.073C892.927 394.754 900.172 401.421 900.172 423.398C900.172 445.375 893.01 452.042 881.073 452.042H870.619V394.754ZM876.71 446.856H880.003C888.894 446.856 894.08 443.07 894.08 423.398C894.08 403.726 888.894 399.94 880.003 399.94H876.71V446.774V446.856Z" fill="#005A3E"/>
<path d="M916.965 394.754H910.873V452.042H916.965V394.754Z" fill="#005A3E"/>
<path d="M954.174 394.754V400.022H942.567V452.124H936.475V400.022H924.868V394.754H954.174Z" fill="#005A3E"/>
<path d="M984.303 394.754V400.022H964.628V419.529H979.199V424.797H964.628V446.856H985.291V452.124H958.537V394.754H984.303Z" fill="#005A3E"/>
<path d="M994.511 394.754H1004.97C1016.82 394.754 1024.06 401.421 1024.06 423.398C1024.06 445.375 1016.9 452.042 1004.97 452.042H994.511V394.754ZM1000.68 446.856H1003.98C1012.87 446.856 1018.05 443.07 1018.05 423.398C1018.05 403.726 1012.87 399.94 1003.98 399.94H1000.68V446.774V446.856Z" fill="#005A3E"/>
<path d="M1029.17 397.059H1027.52V401.751H1026.7V397.059H1025.05V396.401H1029.25V397.059H1029.17ZM1030.81 401.751H1029.99V396.401H1031.31L1032.87 400.516L1034.44 396.401H1035.75V401.751H1034.93V397.224L1033.12 401.751H1032.54L1030.81 397.224V401.751Z" fill="#005A3E"/>
<path d="M694.371 469.244L700.134 494.678H700.216L705.814 469.244H711.576V502.909H708.201V472.043H708.119L701.286 502.909H698.899L692.066 472.043H691.984V502.909H688.691V469.244H694.371Z" fill="#595757"/>
<path d="M716.268 485.294C716.927 481.508 719.149 478.216 723.348 478.216C727.546 478.216 730.18 480.85 730.18 485.13V498.629C730.18 500.769 730.427 502.332 730.757 502.909H727.299L726.888 500.851C725.57 502.168 723.348 503.402 721.784 503.402C718.079 503.402 715.61 501.015 715.61 497.147C715.61 491.221 722.113 488.175 726.888 487.105V485.377C726.888 482.743 725.57 481.014 723.43 481.014C720.878 481.014 719.643 483.566 719.314 485.788L716.268 485.294ZM726.888 489.821C723.842 490.727 718.985 493.031 718.985 496.818C718.985 499.122 719.973 500.522 722.36 500.522C724.171 500.522 725.735 499.287 726.888 497.97V489.739V489.821Z" fill="#595757"/>
<path d="M736.354 478.71H739.483V481.344C741.047 479.697 743.352 478.216 744.916 478.216C748.208 478.216 750.184 480.109 750.184 484.554V502.909H746.891V485.047C746.891 482.249 746.068 481.014 744.257 481.014C742.693 481.014 741.211 482.167 739.73 483.977V502.909H736.437V478.71H736.354Z" fill="#595757"/>
<path d="M755.617 485.294C756.276 481.508 758.499 478.216 762.697 478.216C766.895 478.216 769.529 480.85 769.529 485.13V498.629C769.529 500.769 769.776 502.332 770.106 502.909H766.648L766.237 500.851C764.92 502.168 762.615 503.402 761.133 503.402C757.428 503.402 754.959 501.015 754.959 497.147C754.959 491.221 761.38 488.175 766.154 487.105V485.377C766.154 482.743 764.837 481.014 762.697 481.014C760.145 481.014 758.91 483.566 758.581 485.788L755.535 485.294H755.617ZM766.237 489.821C763.191 490.727 758.334 493.031 758.334 496.818C758.334 499.122 759.322 500.522 761.709 500.522C763.52 500.522 765.084 499.287 766.237 497.97V489.739V489.821Z" fill="#595757"/>
<path d="M791.18 481.261C791.18 481.261 790.521 481.179 790.192 481.179C789.286 481.179 788.71 481.508 788.134 482.084C788.628 483.566 788.875 484.801 788.875 486.776C788.875 492.867 786.158 495.418 782.454 495.418C781.713 495.418 780.972 495.254 780.231 495.254C779.655 495.418 778.585 495.912 778.585 496.818C778.585 498.546 781.301 498.628 784.347 499.287C787.805 500.028 790.85 501.18 790.85 505.131C790.85 508.259 787.805 510.81 782.783 510.81C777.35 510.81 774.633 508.753 774.633 505.625C774.633 503.485 775.95 501.674 778.091 500.769C776.691 500.275 775.539 499.122 775.539 497.476C775.539 495.665 777.103 494.513 778.667 494.266C776.774 492.949 775.868 489.821 775.868 487.352C775.868 481.59 778.585 478.216 782.783 478.216C784.347 478.216 786.323 478.957 787.146 480.438C787.887 479.121 789.122 478.216 791.18 478.216V481.261ZM780.89 501.592C778.996 502.415 777.679 503.567 777.679 504.884C777.679 506.859 779.326 508.259 782.865 508.259C786.405 508.259 787.805 506.777 787.805 504.802C787.805 502.579 783.689 502.168 780.807 501.509M782.371 492.949C784.265 492.949 785.829 491.468 785.829 486.858C785.829 482.249 784.265 480.767 782.371 480.767C780.478 480.767 778.914 482.249 778.914 486.858C778.914 491.468 780.478 492.949 782.371 492.949Z" fill="#595757"/>
<path d="M797.024 491.303V492.62C797.024 498.546 798.342 500.522 801.47 500.522C804.022 500.522 805.009 498.135 805.421 495.995L808.549 496.406C808.055 500.028 805.339 503.402 800.976 503.402C795.954 503.402 793.649 499.616 793.649 490.809C793.649 482.002 795.954 478.216 800.976 478.216C805.997 478.216 808.302 482.743 808.302 489.739V491.303H797.024ZM805.009 488.587C804.927 483.401 804.022 481.014 801.058 481.014C798.671 481.014 797.107 482.743 797.024 488.587H805.009Z" fill="#595757"/>
<path d="M812.912 502.909V478.71H815.958V481.344C817.275 479.78 819.251 478.216 821.474 478.216C823.367 478.216 825.178 479.45 825.754 481.261C827.071 479.78 828.965 478.216 831.352 478.216C834.48 478.216 836.127 480.356 836.127 483.813V502.909H832.834V484.307C832.834 481.755 832.093 481.014 830.364 481.014C828.388 481.014 827.236 482.496 826.166 483.566V502.909H822.873V484.307C822.873 481.755 821.967 481.014 820.239 481.014C818.263 481.014 817.111 482.496 816.205 483.566V502.909H812.912Z" fill="#595757"/>
<path d="M844.029 491.303V492.62C844.029 498.546 845.346 500.522 848.475 500.522C851.026 500.522 852.014 498.135 852.426 495.995L855.554 496.406C855.06 500.028 852.344 503.402 847.981 503.402C842.959 503.402 840.654 499.616 840.654 490.809C840.654 482.002 842.959 478.216 847.981 478.216C853.002 478.216 855.307 482.743 855.307 489.739V491.303H844.029ZM852.014 488.587C851.932 483.401 851.026 481.014 848.063 481.014C845.676 481.014 844.112 482.743 844.112 488.587H852.097H852.014Z" fill="#595757"/>
<path d="M859.588 478.71H862.716V481.344C864.28 479.697 866.585 478.216 868.149 478.216C871.442 478.216 873.418 480.109 873.418 484.554V502.909H870.125V485.047C870.125 482.249 869.302 481.014 867.491 481.014C865.926 481.014 864.445 482.167 862.963 483.977V502.909H859.67V478.71H859.588Z" fill="#595757"/>
<path d="M876.381 478.71H879.592V470.644H882.884V478.71H887.247V481.508H882.884V498.464C882.884 499.863 883.625 500.851 885.272 500.851C885.93 500.851 886.753 500.604 887.247 500.357V502.909C886.342 503.156 885.519 503.403 884.119 503.403C880.991 503.403 879.509 501.921 879.509 498.217V481.508H876.299V478.71H876.381Z" fill="#595757"/>
<path d="M912.355 477.969C912.108 474.512 910.709 471.878 907.251 471.878C904.535 471.878 902.724 473.771 902.724 476.323C902.724 483.895 916.059 483.978 916.059 494.842C916.059 500.192 913.014 503.403 907.58 503.403C902.147 503.403 899.266 499.534 899.184 493.937H902.477C902.559 497.888 904.37 500.357 907.91 500.357C910.873 500.357 912.849 498.382 912.849 494.842C912.849 487.188 899.513 486.282 899.513 476.734C899.513 471.96 902.724 468.915 907.498 468.915C912.273 468.915 915.401 472.207 915.648 478.051H912.355V477.969Z" fill="#595757"/>
<path d="M920.669 478.71L925.197 497.23H925.279L928.901 478.71H932.277L926.843 502.415C925.609 507.683 923.304 510.811 919.352 510.811H917.624V508.012H918.611C921.246 508.012 922.892 506.119 923.551 502.744L917.212 478.71H920.587H920.669Z" fill="#595757"/>
<path d="M944.378 484.801C943.801 482.661 942.896 481.014 940.262 481.014C938.698 481.014 937.627 482.249 937.627 483.895C937.627 488.834 947.753 489.081 947.753 496.653C947.753 500.439 945.036 503.402 941.249 503.402C936.969 503.402 934.746 501.015 933.594 496.982L936.639 496.324C937.298 498.464 938.615 500.604 941.002 500.604C942.814 500.604 944.46 498.958 944.46 496.9C944.46 491.303 934.417 491.221 934.417 484.06C934.417 480.932 936.969 478.216 940.591 478.216C944.213 478.216 946.436 480.356 947.259 483.977L944.542 484.801H944.378Z" fill="#595757"/>
<path d="M949.317 478.71H952.527V470.644H955.82V478.71H960.183V481.508H955.82V498.464C955.82 499.863 956.561 500.851 958.207 500.851C958.866 500.851 959.689 500.604 960.183 500.357V502.909C959.278 503.156 958.454 503.403 957.055 503.403C953.927 503.403 952.445 501.921 952.445 498.217V481.508H949.234V478.71H949.317Z" fill="#595757"/>
<path d="M965.863 491.303V492.62C965.863 498.546 967.18 500.522 970.308 500.522C972.86 500.522 973.931 498.135 974.342 495.995L977.47 496.406C976.976 500.028 974.26 503.402 969.897 503.402C964.875 503.402 962.57 499.616 962.57 490.809C962.57 482.002 964.875 478.216 969.897 478.216C974.918 478.216 977.223 482.743 977.223 489.739V491.303H965.945H965.863ZM973.848 488.587C973.766 483.401 972.86 481.014 969.815 481.014C967.427 481.014 965.863 482.743 965.863 488.587H973.848Z" fill="#595757"/>
<path d="M981.833 502.909V478.71H984.879V481.344C986.196 479.78 988.172 478.216 990.395 478.216C992.288 478.216 994.017 479.45 994.675 481.261C995.992 479.78 997.886 478.216 1000.19 478.216C1003.32 478.216 1005.05 480.356 1005.05 483.813V502.909H1001.75V484.307C1001.75 481.755 1001.01 481.014 999.285 481.014C997.309 481.014 996.157 482.496 995.087 483.566V502.909H991.794V484.307C991.794 481.755 990.889 481.014 989.16 481.014C987.102 481.014 986.032 482.496 985.126 483.566V502.909H981.833Z" fill="#595757"/>
<path d="M1020.61 484.801C1020.03 482.661 1019.12 481.014 1016.49 481.014C1014.93 481.014 1013.86 482.249 1013.86 483.895C1013.86 488.834 1023.9 489.081 1023.9 496.653C1023.9 500.439 1021.18 503.402 1017.4 503.402C1013.11 503.402 1010.89 501.015 1009.74 496.982L1012.79 496.324C1013.44 498.464 1014.68 500.604 1017.15 500.604C1018.96 500.604 1020.61 498.958 1020.61 496.9C1020.61 491.303 1010.48 491.221 1010.48 484.06C1010.48 480.932 1013.03 478.216 1016.65 478.216C1020.28 478.216 1022.5 480.356 1023.32 483.977L1020.61 484.801Z" fill="#595757"/>
<path d="M736.766 530.235C736.272 524.967 734.626 522.663 731.827 522.663C727.628 522.663 725.817 526.367 725.817 536.902C725.817 547.438 727.628 551.142 731.827 551.142C735.202 551.142 737.095 548.837 737.178 542.582H740.717C740.635 550.072 737.425 554.27 731.744 554.27C726.064 554.27 722.195 549.743 722.195 536.985C722.195 524.227 725.9 519.7 731.744 519.7C736.684 519.7 739.647 523.157 740.223 530.318H736.684L736.766 530.235Z" fill="#595757"/>
<path d="M747.303 542.17V543.487C747.303 549.413 748.62 551.389 751.748 551.389C754.3 551.389 755.288 549.002 755.782 546.862L758.91 547.191C758.416 550.812 755.7 554.187 751.337 554.187C746.315 554.187 744.01 550.401 744.01 541.594C744.01 532.787 746.315 529 751.337 529C756.358 529 758.663 533.528 758.663 540.524V542.088H747.385L747.303 542.17ZM755.288 539.371C755.206 534.186 754.3 531.799 751.337 531.799C748.949 531.799 747.385 533.61 747.303 539.371H755.288Z" fill="#595757"/>
<path d="M762.532 529.495H765.825V532.458H765.907C767.883 529.495 769.365 529.083 771.999 529.083V532.293C769.529 532.293 767.636 533.116 765.825 536.573V553.776H762.532V529.577V529.495Z" fill="#595757"/>
<path d="M771.917 529.495H775.127V521.428H778.42V529.495H782.865V532.293H778.42V549.249C778.42 550.648 779.161 551.636 780.807 551.636C781.466 551.636 782.289 551.389 782.783 551.142V553.693C781.877 553.94 781.054 554.187 779.655 554.187C776.527 554.187 775.045 552.706 775.045 549.002V532.293H771.834V529.495H771.917Z" fill="#595757"/>
<path d="M787.064 520.111H790.356V524.062H787.064V520.111ZM787.064 529.495H790.356V553.693H787.064V529.495Z" fill="#595757"/>
<path d="M793.238 529.495H796.942V524.556C796.942 521.264 798.259 519.618 801.799 519.618C802.705 519.618 803.61 519.782 804.351 519.865V522.498C803.775 522.252 803.198 522.087 802.54 522.087C800.976 522.087 800.235 523.075 800.235 524.639V529.412H804.104V532.211H800.235V553.611H796.942V532.211H793.238V529.412V529.495ZM807.232 520.112H810.525V524.062H807.232V520.112ZM807.232 529.495H810.525V553.694H807.232V529.495Z" fill="#595757"/>
<path d="M825.507 536.655C825.178 533.034 823.778 531.799 821.72 531.799C818.922 531.799 817.769 533.61 817.769 541.594C817.769 549.578 818.922 551.389 821.72 551.389C823.861 551.389 825.013 550.236 825.59 546.038H828.8C828.224 550.812 826.083 554.187 821.72 554.187C816.699 554.187 814.394 550.401 814.394 541.594C814.394 532.787 816.699 529 821.72 529C826.001 529 828.059 531.881 828.718 536.655H825.507Z" fill="#595757"/>
<path d="M832.834 536.079C833.492 532.293 835.715 529 839.913 529C844.112 529 846.746 531.634 846.746 535.914V549.413C846.746 551.553 846.993 553.117 847.322 553.693H843.865L843.453 551.635C842.136 552.952 839.913 554.187 838.349 554.187C834.645 554.187 832.175 551.8 832.175 547.932C832.175 542.005 838.596 538.96 843.371 537.89V536.161C843.371 533.528 842.054 531.799 839.913 531.799C837.361 531.799 836.127 534.351 835.797 536.573L832.751 536.079H832.834ZM843.371 540.688C840.325 541.594 835.468 543.816 835.468 547.685C835.468 549.989 836.456 551.389 838.843 551.389C840.654 551.389 842.218 550.154 843.371 548.837V540.606V540.688Z" fill="#595757"/>
<path d="M850.039 529.495H853.249V521.428H856.542V529.495H860.987V532.293H856.542V549.249C856.542 550.648 857.283 551.636 858.929 551.636C859.588 551.636 860.411 551.389 860.987 551.142V553.693C860.082 553.94 859.258 554.187 857.859 554.187C854.731 554.187 853.249 552.706 853.249 549.002V532.293H850.039V529.495Z" fill="#595757"/>
<path d="M865.103 520.111H868.396V524.062H865.103V520.111ZM865.103 529.495H868.396V553.693H865.103V529.495Z" fill="#595757"/>
<path d="M880.086 529C885.107 529 887.412 532.787 887.412 541.594C887.412 550.401 885.107 554.187 880.086 554.187C875.064 554.187 872.759 550.401 872.759 541.594C872.759 532.787 875.064 529 880.086 529ZM880.086 551.389C882.884 551.389 884.119 549.578 884.119 541.594C884.119 533.61 882.967 531.799 880.086 531.799C877.204 531.799 876.134 533.61 876.134 541.594C876.134 549.578 877.369 551.389 880.086 551.389Z" fill="#595757"/>
<path d="M891.61 529.494H894.738V532.128C896.303 530.482 898.608 529 900.172 529C903.464 529 905.44 530.894 905.44 535.338V553.693H902.147V535.832C902.147 533.034 901.324 531.799 899.513 531.799C897.949 531.799 896.467 532.951 894.985 534.762V553.693H891.693V529.494H891.61Z" fill="#595757"/>
<path d="M920.505 520.111H929.313C934.252 520.111 937.133 523.486 937.133 528.425C937.133 531.799 935.652 534.845 932.112 535.915C936.063 537.067 937.874 540.277 937.874 544.475C937.874 550.73 934.499 553.776 927.255 553.776H920.587V520.111H920.505ZM924.127 534.515H926.103C931.206 534.515 933.511 532.952 933.511 528.342C933.511 524.556 931.865 523.157 927.667 523.157H924.127V534.515ZM924.127 550.648H927.667C931.947 550.648 934.252 548.755 934.252 544.393C934.252 540.03 932.359 537.561 927.667 537.561H924.127V550.566V550.648Z" fill="#595757"/>
<path d="M948.658 529C953.68 529 955.985 532.787 955.985 541.594C955.985 550.401 953.68 554.187 948.658 554.187C943.637 554.187 941.332 550.401 941.332 541.594C941.332 532.787 943.637 529 948.658 529ZM948.658 551.389C951.457 551.389 952.692 549.578 952.692 541.594C952.692 533.61 951.457 531.799 948.658 531.799C945.859 531.799 944.625 533.61 944.625 541.594C944.625 549.578 945.859 551.389 948.658 551.389Z" fill="#595757"/>
<path d="M970.967 551.389H970.885C969.732 553.118 968.086 554.188 965.945 554.188C962.159 554.188 959.113 550.895 959.113 541.594C959.113 532.293 962.241 529.001 965.945 529.001C967.756 529.001 969.238 530.153 970.391 531.223V520.029H973.684V547.109C973.684 550.237 973.848 552.212 974.26 553.611H971.132L970.967 551.307V551.389ZM970.391 533.94C969.403 532.952 968.25 531.8 966.851 531.8C964.052 531.8 962.488 534.104 962.488 541.594C962.488 549.084 964.217 551.389 967.016 551.389C968.003 551.389 969.485 550.484 970.473 549.084V534.022L970.391 533.94Z" fill="#595757"/>
<path d="M980.022 529.494L984.55 548.014H984.632L988.337 529.494H991.712L986.279 553.199C985.044 558.467 982.739 561.595 978.787 561.595H977.059V558.796H978.047C980.681 558.796 982.327 556.903 982.986 553.446L976.647 529.412H980.022V529.494Z" fill="#595757"/>
<path d="M699.969 607.277H705.978L720.137 647.279L734.214 607.277H740.223V653.946H736.025V613.779L721.866 653.946H718.162L704.085 613.779V653.946H699.887V607.277H699.969Z" fill="white"/>
<path d="M754.876 639.789C754.876 643.493 756.029 646.291 758.252 648.349C760.557 650.407 763.767 651.477 767.883 651.477C771.505 651.477 774.386 650.654 776.444 648.925C778.502 647.279 779.573 645.057 779.573 642.258C779.573 639.46 778.667 637.155 776.938 635.756C775.457 634.521 772.74 633.369 768.624 632.299L764.261 631.229C759.733 630.076 756.523 628.595 754.63 626.949C752.571 624.973 751.501 622.257 751.501 618.636C751.501 615.014 752.818 611.886 755.535 609.581C758.334 607.277 762.121 606.125 766.813 606.125C771.505 606.125 775.539 607.359 778.255 609.828C780.972 612.298 782.371 615.837 782.454 620.282H778.008C778.008 616.989 776.938 614.438 774.88 612.627C772.905 610.816 770.106 609.993 766.484 609.993C762.862 609.993 760.392 610.734 758.499 612.298C756.688 613.779 755.782 616.002 755.782 618.718C755.782 620.858 756.358 622.586 757.593 623.821C758.828 625.056 760.804 626.043 763.602 626.702L769.036 628.019C774.139 629.253 777.844 630.9 780.149 632.875C782.536 635.015 783.689 637.896 783.689 641.682C783.689 645.798 782.289 649.09 779.408 651.559C776.527 654.028 772.658 655.263 767.718 655.263C762.121 655.263 757.84 653.946 754.794 651.312C751.831 648.678 750.267 644.974 750.267 640.118V639.789H754.712H754.876Z" fill="white"/>
<path d="M831.023 638.719C830.611 643.904 828.8 647.938 825.59 650.901C822.297 653.864 817.934 655.345 812.501 655.345C806.244 655.345 801.305 653.123 797.683 648.761C793.979 644.398 792.168 638.307 792.168 630.57C792.168 622.833 794.061 616.907 797.765 612.545C801.387 608.265 806.327 606.125 812.665 606.125C817.934 606.125 822.214 607.441 825.425 610.158C828.635 612.874 830.364 616.413 830.693 620.94H826.495C826.083 617.483 824.602 614.849 822.214 612.874C819.745 610.898 816.617 609.993 812.748 609.993C807.726 609.993 803.775 611.722 800.976 615.261C798.177 618.882 796.777 623.903 796.777 630.488C796.777 637.073 798.177 642.258 801.058 645.962C803.939 649.584 807.808 651.395 812.83 651.395C816.946 651.395 820.321 650.242 822.791 648.02C825.26 645.798 826.66 642.67 826.989 638.719H831.187H831.023Z" fill="white"/>
<path d="M840.489 607.277H856.295C858.682 607.277 860.658 607.359 862.14 607.606C863.951 607.935 865.432 608.429 866.667 609.17C868.396 610.158 869.795 611.557 870.783 613.368C871.771 615.179 872.265 617.072 872.265 619.294C872.265 621.599 871.689 623.574 870.454 625.385C869.219 627.196 867.573 628.513 865.35 629.336C868.149 629.912 870.289 631.311 871.936 633.451C873.582 635.591 874.405 638.225 874.405 641.353C874.405 644.069 873.747 646.456 872.43 648.431C871.113 650.489 869.302 651.971 867.079 652.958C866.009 653.37 864.28 653.617 861.975 653.782C860.164 653.946 857.365 653.946 853.661 653.946H840.407V607.277H840.489ZM844.77 611.145V627.936H855.225C859.752 627.936 862.963 627.36 864.856 626.29C866.997 625.056 868.067 622.751 868.067 619.541C868.067 616.331 866.997 614.026 864.939 612.792C863.045 611.722 859.917 611.145 855.554 611.145H844.77ZM857.777 650.078C862.14 650.078 865.268 649.501 867.079 648.267C869.137 646.95 870.125 644.563 870.125 641.188C870.125 638.06 869.137 635.674 867.079 634.027C865.021 632.463 862.057 631.723 858.106 631.723H844.77V650.16H857.777V650.078Z" fill="white"/>
<path d="M913.508 628.924V632.381H881.238V628.924H913.508Z" fill="white"/>
<path d="M934.005 616.578C932.935 617.401 931.536 618.059 929.807 618.471C928.078 618.882 925.938 619.129 923.386 619.129H922.727V616.331H923.057C926.761 616.331 929.56 615.59 931.453 614.191C933.347 612.791 934.335 610.487 934.581 607.359H938.286V652.711H934.005V616.66V616.578Z" fill="white"/>
<path d="M978.047 641.435H958.537V638.06L977.717 608.676H982.245V638.06H988.254V641.435H982.245V652.629H978.047V641.435ZM978.047 614.026L962.406 637.978H978.047V614.026Z" fill="white"/>
<path d="M996.157 651.312C996.157 647.938 997.063 644.892 998.874 642.341C1000.6 639.871 1003.4 637.484 1007.19 635.097L1011.72 632.381C1013.61 631.311 1014.84 630.488 1015.67 629.994C1016.9 629.171 1017.89 628.348 1018.63 627.607C1019.62 626.455 1020.28 625.385 1020.69 624.315C1021.18 623.245 1021.35 621.928 1021.35 620.529C1021.35 617.566 1020.44 615.179 1018.8 613.532C1017.15 611.886 1014.76 611.145 1011.8 611.145C1008.51 611.145 1005.95 612.133 1004.22 614.026C1002.41 615.919 1001.59 618.718 1001.59 622.339H997.31C997.474 617.483 998.791 613.779 1001.26 611.228C1003.81 608.594 1007.43 607.277 1012.04 607.277C1016.24 607.277 1019.54 608.429 1022.01 610.816C1024.48 613.203 1025.71 616.413 1025.71 620.446C1025.71 622.339 1025.38 623.986 1024.8 625.467C1024.23 626.949 1023.32 628.348 1022.09 629.747C1021.18 630.735 1019.87 631.805 1018.22 632.957C1017.31 633.616 1015.67 634.603 1013.36 635.838L1010.23 637.649C1007.02 639.46 1004.64 641.271 1003.15 642.999C1001.59 644.81 1000.68 646.868 1000.52 649.09H1025.55V652.712H996.322V651.395L996.157 651.312Z" fill="white"/>
</g>
<defs>
<clipPath id="clip0_171_908">
<rect width="1036" height="663" fill="white"/>
</clipPath>
</defs>
</svg>
