<svg width="274" height="84" viewBox="0 0 274 84" fill="none" xmlns="http://www.w3.org/2000/svg">
<g clip-path="url(#clip0_1011_32)">
<path d="M202.67 0H202.63C193.96 0.02 186.93 7.05 186.93 15.73V27.52C185.46 26.89 183.85 26.55 182.15 26.55H166.77C160.02 26.55 154.54 32.02 154.54 38.78V44.83H149.43C144.63 44.83 140.74 40.94 140.74 36.14V23.68C140.74 18.88 144.63 14.99 149.43 14.99H158.17C158.2 14.99 158.24 14.99 158.27 14.98H161.89V11.27V11.26V11.25V7.55H158.64H158.33C158.28 7.55 158.23 7.54 158.17 7.54H149.43C140.52 7.54 133.29 14.77 133.29 23.68V36.14C133.29 45.05 140.52 52.28 149.43 52.28H154.54V58.9C154.54 65.65 160.01 71.13 166.77 71.13H182.15C188.9 71.13 194.38 65.66 194.38 58.9V56.09V38.78V15.73C194.38 11.16 198.09 7.45 202.66 7.45C202.69 7.45 202.73 7.45 202.76 7.44H206.22V3.89V3.56V0.01H204.56L202.67 0ZM186.93 56.09V58.9C186.93 61.54 184.79 63.68 182.15 63.68H166.77C164.13 63.68 161.99 61.54 161.99 58.9V38.78C161.99 36.14 164.13 34 166.77 34H182.15C184.79 34 186.93 36.14 186.93 38.78V56.09Z" fill="white"/>
<path d="M244.35 34.47L241.01 34.48L221.47 22.88C221.47 22.88 221.47 22.88 221.46 22.88L218.36 21.04L214.3 27.29L220.73 31.11L226.42 34.49H210.26H208.4L206.23 34.48V38.18C206.23 38.19 206.23 38.2 206.23 38.22C206.23 38.23 206.23 38.24 206.23 38.26V41.95H209.94H209.95H213.32C209.94 45.74 208.02 50.87 208.54 56.44C209.37 65.36 216.51 72.65 225.42 73.63C236.92 74.89 246.68 65.89 246.68 54.64C246.68 49.77 244.83 45.33 241.82 41.95H244.67H244.68H248.4V34.5H246.54L244.35 34.47ZM239.06 56.6C238.26 61.43 234.37 65.32 229.54 66.12C221.57 67.44 214.75 60.61 216.07 52.65C216.87 47.82 220.76 43.93 225.59 43.13C233.55 41.81 240.37 48.63 239.06 56.6Z" fill="white"/>
<path d="M271.97 27.79L270.03 27.78V27.79C269.99 27.79 269.95 27.78 269.9 27.78H266.5C259.78 27.78 254.33 33.23 254.33 39.95V77.53V80.14V83.86H261.74V80.64C261.76 80.47 261.78 80.31 261.78 80.14V39.94C261.78 37.33 263.89 35.22 266.5 35.22H269.9C269.94 35.22 269.99 35.22 270.03 35.21H273.63V27.77H271.97V27.79Z" fill="white"/>
<path d="M221.46 9.85V14.47H219.78V9.85H214.18V8.43H227.08V9.85H221.46ZM225.71 7.39C223.56 6.79 221.71 5.61 220.63 4.21C219.54 5.61 217.7 6.79 215.53 7.39L214.68 6.15C217.29 5.44 219.6 3.74 219.73 2.25H215.58V0.830002H225.68V2.25H221.5C221.63 3.74 223.95 5.44 226.56 6.15L225.71 7.39Z" fill="white"/>
<path d="M237.71 7.97C236.17 7.17 234.93 6 234.16 4.71C233.47 6.03 232.16 7.38 230.35 8.37L229.33 7.25C231.67 6.04 233.25 4.03 233.25 2.14V0.720004H234.98V2.15C234.98 4.07 236.63 5.81 238.57 6.77L237.71 7.97ZM239.82 14.55V10.65H231.66V9.23H241.47V14.55H239.82ZM239.85 8.49V0.410004H241.5V8.49H239.85Z" fill="white"/>
<path d="M255.06 11.59C253.17 11.89 250.89 11.95 248.93 11.95H245.49V10.53H249.34V9.11C247.63 8.87 246.51 7.85 246.51 6.37C246.51 4.69 247.97 3.57 250.13 3.57C252.28 3.57 253.73 4.69 253.73 6.37C253.73 7.82 252.68 8.82 251.02 9.09V10.52C252.51 10.49 253.87 10.41 255.06 10.24V11.59ZM245.99 3.05V1.64H249.29V0H250.94V1.64H254.24V3.06H245.99V3.05ZM250.13 4.95C248.84 4.95 248.16 5.5 248.16 6.37C248.16 7.22 248.84 7.79 250.13 7.79C251.42 7.79 252.08 7.22 252.08 6.37C252.08 5.5 251.42 4.95 250.13 4.95ZM255.62 14.47V0.41H257.27V14.47H255.62Z" fill="white"/>
<path d="M268.03 12.03C266.52 10.77 265.33 9.25 264.62 7.69C263.98 9.26 262.8 10.95 261.1 12.33L259.95 11.29C262.1 9.65 263.72 6.87 263.72 4.57V1.01H265.45V4.58C265.45 7.02 267.18 9.53 269.04 10.93L268.03 12.03ZM269.98 14.47V0.410004H271.63V5.46H273.63V6.9H271.63V14.46H269.98V14.47Z" fill="white"/>
<path d="M36.49 68.38C36.44 68.36 36.4 68.34 36.35 68.31C36.06 68.16 35.78 67.98 35.49 67.81C35.39 67.75 35.3 67.7 35.2 67.64C34.95 67.47 34.7 67.28 34.46 67.1C34.35 67.02 34.24 66.94 34.14 66.86C33.8 66.58 33.48 66.29 33.16 65.98C30.76 63.58 29.27 60.26 29.27 56.59C29.27 47.75 22.11 40.59 13.27 40.59L13.29 40.57C11.2 40.57 9.11 40.09 7.21 39.12C7.16 39.1 7.12 39.08 7.07 39.05C6.78 38.9 6.5 38.72 6.21 38.55C6.12 38.49 6.02 38.44 5.92 38.38C5.67 38.21 5.42 38.02 5.18 37.84C5.07 37.76 4.96 37.68 4.86 37.6C4.53 37.3 4.2 37.01 3.89 36.7C1.49 34.3 0 30.98 0 27.31C0 19.98 5.94 14.04 13.27 14.04C20.6 14.04 26.54 19.98 26.54 27.31C26.54 36.15 33.7 43.31 42.54 43.31C51.38 43.31 58.54 36.15 58.54 27.31C58.54 19.98 64.48 14.04 71.81 14.04C79.14 14.04 85.08 19.98 85.08 27.31C85.08 30.98 83.59 34.29 81.19 36.69C80.88 37 80.55 37.3 80.21 37.57C80.11 37.65 80 37.73 79.89 37.81C79.64 38 79.4 38.19 79.14 38.36C79.05 38.42 78.95 38.47 78.86 38.53C78.58 38.71 78.29 38.88 78 39.04C77.96 39.06 77.91 39.08 77.86 39.11C75.96 40.08 73.86 40.57 71.77 40.56L71.79 40.58C62.95 40.58 55.79 47.74 55.79 56.58C55.79 60.25 54.3 63.56 51.9 65.96C51.59 66.27 51.26 66.57 50.92 66.84C50.82 66.92 50.71 67 50.6 67.08C50.35 67.27 50.11 67.46 49.85 67.63C49.76 67.69 49.66 67.74 49.57 67.8C49.29 67.98 49 68.15 48.71 68.31C48.67 68.33 48.62 68.35 48.57 68.38C44.82 70.32 40.28 70.32 36.49 68.38Z" fill="url(#paint0_linear_1011_32)"/>
<path d="M114.07 33.37C114.05 33.41 114.03 33.46 114 33.51C113.85 33.8 113.67 34.09 113.49 34.37C113.43 34.46 113.38 34.56 113.32 34.65C113.15 34.91 112.96 35.15 112.77 35.4C112.69 35.5 112.62 35.61 112.53 35.72C112.25 36.06 111.96 36.38 111.65 36.7C109.25 39.1 105.93 40.59 102.27 40.59C93.43 40.59 86.27 47.75 86.27 56.59C86.27 60.26 84.78 63.57 82.38 65.98C82.07 66.29 81.74 66.59 81.4 66.86C81.3 66.94 81.19 67.02 81.08 67.1C80.83 67.29 80.59 67.48 80.33 67.65C80.24 67.71 80.14 67.76 80.05 67.82C79.77 68 79.48 68.17 79.19 68.33C79.15 68.35 79.1 68.37 79.05 68.4C75.26 70.34 70.72 70.34 66.93 68.4C66.88 68.38 66.84 68.36 66.79 68.33C66.5 68.18 66.21 68 65.93 67.83C65.83 67.77 65.74 67.72 65.64 67.66C65.39 67.49 65.14 67.3 64.9 67.12C64.79 67.04 64.68 66.96 64.58 66.88C64.24 66.6 63.92 66.31 63.6 66C61.2 63.6 59.71 60.28 59.71 56.61C59.71 49.28 65.65 43.34 72.98 43.34C81.82 43.34 88.98 36.18 88.98 27.34C88.98 20.01 94.92 14.07 102.25 14.07C105.91 14.07 109.23 15.56 111.63 17.96C111.94 18.27 112.24 18.6 112.51 18.94C112.59 19.04 112.67 19.15 112.75 19.26C112.94 19.51 113.13 19.75 113.3 20.01C113.36 20.1 113.41 20.2 113.47 20.29C113.65 20.57 113.82 20.86 113.98 21.15C114 21.19 114.02 21.24 114.05 21.29C114.99 23.11 115.52 25.17 115.52 27.35C115.54 29.5 115 31.56 114.07 33.37Z" fill="url(#paint1_linear_1011_32)"/>
</g>
<defs>
<linearGradient id="paint0_linear_1011_32" x1="85.0906" y1="41.9377" x2="0" y2="41.9377" gradientUnits="userSpaceOnUse">
<stop offset="0.0711" stop-color="#C94B43"/>
<stop offset="0.5978" stop-color="#D36554"/>
<stop offset="1" stop-color="#DFAC3A"/>
</linearGradient>
<linearGradient id="paint1_linear_1011_32" x1="59.7259" y1="41.9377" x2="115.543" y2="41.9377" gradientUnits="userSpaceOnUse">
<stop stop-color="#C94B43"/>
<stop offset="1" stop-color="#444489"/>
</linearGradient>
<clipPath id="clip0_1011_32">
<rect width="273.63" height="83.88" fill="white"/>
</clipPath>
</defs>
</svg>
