<svg width="480" height="72" viewBox="0 0 480 72" fill="none" xmlns="http://www.w3.org/2000/svg">
<path d="M216.52 19.6071L198.517 9.33429L171.174 24.9429V56.1471L198.517 71.7557L216.52 61.4829V65.1986H225.86V0H216.52V19.6071ZM198.517 61.0843L180.514 50.8114V30.2657L198.517 19.9929L216.52 30.2657V50.8114L198.517 61.0843Z" fill="#212322"/>
<path d="M234.42 24.93V56.1343L261.763 71.7428L279.766 61.47V65.1857H289.106V24.93L261.763 9.32141L234.42 24.93ZM279.766 50.8114L261.763 61.0843L243.759 50.8114V30.2657L261.763 19.9928L279.766 30.2657V50.8114Z" fill="#212322"/>
<path d="M297.665 24.9299V65.1857H307.005V30.2657L320.585 22.5257V66.4199H329.925V22.8085L343.011 30.2657V65.1857H352.364V24.9299L325.008 9.33423L297.665 24.9299Z" fill="#212322"/>
<path d="M370.263 19.6071V0H360.911V24.93V53.4857V65.1857H370.263V53.4857V30.2657L388.254 19.9929L406.257 30.2657V65.1857H415.61V24.93L388.254 9.33429L370.263 19.6071Z" fill="#212322"/>
<path d="M451.499 9.33423L424.156 24.9428V56.1471L451.499 71.7557L469.502 61.4828V65.1985H478.842V24.9428L451.499 9.33423ZM451.499 61.0842L433.496 50.8114V30.2657L451.499 19.9928L469.502 30.2657V50.8114L451.499 61.0842Z" fill="#212322"/>
<path d="M48.7675 69.8786C48.7675 69.8786 48.6504 69.8271 48.5854 69.7886C48.2081 69.5957 47.8439 69.3643 47.4667 69.1457C47.3366 69.0686 47.2195 69.0043 47.0894 68.9271C46.7642 68.7086 46.439 68.4643 46.1268 68.2329C45.9837 68.13 45.8406 68.0271 45.7106 67.9243C45.2683 67.5643 44.852 67.1914 44.4358 66.7929C41.3138 63.7071 39.3756 59.4386 39.3756 54.72C39.3756 43.3543 30.0618 34.1486 18.5626 34.1486L18.5886 34.1229C15.8699 34.1229 13.1512 33.5057 10.6797 32.2586C10.6146 32.2329 10.5626 32.2071 10.4976 32.1686C10.1203 31.9757 9.74309 31.7443 9.37886 31.5257C9.24878 31.4486 9.13171 31.3843 9.00163 31.3071C8.67642 31.0886 8.35122 30.8443 8.03902 30.6129C7.89593 30.51 7.75285 30.4071 7.62276 30.3043C7.18049 29.9443 6.76423 29.5714 6.34797 29.1729C3.22602 26.0871 1.2878 21.8186 1.2878 17.1C1.30081 7.63714 9.02764 0 18.5626 0C28.0976 0 35.8244 7.63714 35.8244 17.0614C35.8244 28.4271 45.1382 37.6329 56.6374 37.6329C68.1366 37.6329 77.4504 28.4143 77.4504 17.0614C77.4504 7.63714 85.1772 0 94.7252 0C104.26 0 111.987 7.63714 111.987 17.0614C111.987 21.78 110.049 26.0357 106.927 29.1343C106.524 29.5329 106.094 29.9186 105.652 30.2657C105.522 30.3686 105.379 30.4714 105.236 30.5743C104.911 30.8186 104.598 31.0629 104.26 31.2814C104.143 31.3586 104.013 31.4229 103.896 31.5C103.532 31.7314 103.154 31.95 102.777 32.1557C102.725 32.1814 102.66 32.2071 102.595 32.2457C100.124 33.4929 97.3919 34.1229 94.6732 34.11L94.6992 34.1357C83.2 34.1357 73.8862 43.3543 73.8862 54.7071C73.8862 59.4257 71.948 63.6814 68.826 66.78C68.4228 67.1786 67.9935 67.5643 67.5512 67.9114C67.4211 68.0143 67.2781 68.1171 67.135 68.22C66.8098 68.4643 66.4976 68.7086 66.1593 68.9271C66.0423 69.0043 65.9122 69.0686 65.7951 69.1457C65.4309 69.3771 65.0537 69.5957 64.6764 69.8014C64.6244 69.8271 64.5594 69.8529 64.4943 69.8914C59.5642 72.3857 53.6585 72.3857 48.7285 69.8914L48.7675 69.8786Z" fill="url(#paint0_linear_13_243)"/>
<path d="M149.711 24.8657C149.711 24.8657 149.659 24.9814 149.62 25.0457C149.424 25.4186 149.19 25.7914 148.956 26.1514C148.878 26.2671 148.813 26.3957 148.735 26.5114C148.514 26.8457 148.267 27.1543 148.02 27.4757C147.915 27.6043 147.824 27.7457 147.707 27.8871C147.343 28.3243 146.966 28.7357 146.563 29.1471C143.441 32.2329 139.122 34.1486 134.348 34.1486C122.849 34.1486 113.535 43.3671 113.535 54.72C113.535 59.4386 111.597 63.6943 108.475 66.7929C108.072 67.1914 107.642 67.5771 107.2 67.9243C107.07 68.0271 106.927 68.13 106.784 68.2329C106.459 68.4771 106.146 68.7214 105.808 68.94C105.691 69.0171 105.561 69.0814 105.444 69.1586C105.08 69.39 104.702 69.6086 104.325 69.8143C104.273 69.84 104.208 69.8657 104.143 69.9043C99.213 72.3986 93.3073 72.3986 88.3772 69.9043C88.3122 69.8786 88.2602 69.8529 88.1951 69.8143C87.8179 69.6214 87.4407 69.39 87.0764 69.1714C86.9463 69.0943 86.8293 69.03 86.6992 68.9529C86.374 68.7343 86.0488 68.49 85.7366 68.2586C85.5935 68.1557 85.4504 68.0529 85.3203 67.95C84.878 67.59 84.4618 67.2171 84.0455 66.8186C80.9236 63.7329 78.9854 59.4643 78.9854 54.7457C78.9854 45.3214 86.7122 37.6843 96.2472 37.6843C107.746 37.6843 117.06 28.4657 117.06 17.1129C117.099 7.63714 124.826 0 134.361 0C139.135 0 143.441 1.91571 146.576 5.00143C146.979 5.4 147.369 5.82429 147.72 6.26143C147.824 6.39 147.928 6.53143 148.033 6.67286C148.28 6.99429 148.527 7.30286 148.748 7.63714C148.826 7.75286 148.891 7.88143 148.969 7.99714C149.203 8.35714 149.424 8.73 149.633 9.10286C149.659 9.15429 149.685 9.21857 149.724 9.28286C150.946 11.6229 151.636 14.2714 151.636 17.0743C151.636 19.89 150.933 22.5257 149.724 24.8657H149.711Z" fill="url(#paint1_linear_13_243)"/>
<defs>
<linearGradient id="paint0_linear_13_243" x1="112" y1="35.8843" x2="1.30082" y2="35.8843" gradientUnits="userSpaceOnUse">
<stop offset="0.07" stop-color="#C94B43"/>
<stop offset="0.6" stop-color="#D36554"/>
<stop offset="1" stop-color="#DFAC3A"/>
</linearGradient>
<linearGradient id="paint1_linear_13_243" x1="79.0114" y1="35.8843" x2="151.623" y2="35.8843" gradientUnits="userSpaceOnUse">
<stop stop-color="#C94B43"/>
<stop offset="1" stop-color="#444489"/>
</linearGradient>
</defs>
</svg>
