<svg width="482" height="72" viewBox="0 0 482 72" fill="none" xmlns="http://www.w3.org/2000/svg">
<path d="M217.422 19.6071L199.344 9.33429L171.887 24.9429V56.1471L199.344 71.7557L217.422 61.4829V65.1986H226.801V0H217.422V19.6071ZM199.344 61.0843L181.266 50.8114V30.2657L199.344 19.9929L217.422 30.2657V50.8114L199.344 61.0843Z" fill="white"/>
<path d="M235.396 24.93V56.1343L262.853 71.7428L280.932 61.47V65.1857H290.31V24.93L262.853 9.32141L235.396 24.93ZM280.932 50.8114L262.853 61.0843L244.775 50.8114V30.2657L262.853 19.9928L280.932 30.2657V50.8114Z" fill="white"/>
<path d="M298.905 24.9299V65.1857H308.284V30.2657L321.921 22.5257V66.4199H331.3V22.8085L344.441 30.2657V65.1857H353.832V24.9299L326.362 9.33423L298.905 24.9299Z" fill="white"/>
<path d="M371.806 19.6071V0H362.414V24.93V53.4857V65.1857H371.806V53.4857V30.2657L389.871 19.9929L407.95 30.2657V65.1857H417.341V24.93L389.871 9.33429L371.806 19.6071Z" fill="white"/>
<path d="M453.38 9.33423L425.923 24.9428V56.1471L453.38 71.7557L471.459 61.4828V65.1985H480.837V24.9428L453.38 9.33423ZM453.38 61.0842L435.302 50.8114V30.2657L453.38 19.9928L471.459 30.2657V50.8114L453.38 61.0842Z" fill="white"/>
<path d="M48.9707 69.8786C48.9707 69.8786 48.8532 69.8271 48.7878 69.7886C48.409 69.5957 48.0433 69.3643 47.6645 69.1457C47.5339 69.0686 47.4163 69.0043 47.2857 68.9271C46.9591 68.7086 46.6326 68.4643 46.3191 68.2329C46.1754 68.13 46.0317 68.0271 45.9011 67.9243C45.457 67.5643 45.039 67.1914 44.621 66.7929C41.486 63.7071 39.5397 59.4386 39.5397 54.72C39.5397 43.3543 30.1871 34.1486 18.64 34.1486L18.6661 34.1229C15.9361 34.1229 13.2061 33.5057 10.7242 32.2586C10.6589 32.2329 10.6067 32.2071 10.5413 32.1686C10.1625 31.9757 9.78373 31.7443 9.41798 31.5257C9.28736 31.4486 9.1698 31.3843 9.03918 31.3071C8.71262 31.0886 8.38606 30.8443 8.07256 30.6129C7.92888 30.51 7.78519 30.4071 7.65457 30.3043C7.21045 29.9443 6.79245 29.5714 6.37446 29.1729C3.2395 26.0871 1.29321 21.8186 1.29321 17.1C1.30628 7.63714 9.0653 0 18.64 0C28.2147 0 35.9737 7.63714 35.9737 17.0614C35.9737 28.4271 45.3263 37.6329 56.8734 37.6329C68.4205 37.6329 77.7732 28.4143 77.7732 17.0614C77.7732 7.63714 85.5322 0 95.1199 0C104.695 0 112.454 7.63714 112.454 17.0614C112.454 21.78 110.507 26.0357 107.372 29.1343C106.967 29.5329 106.536 29.9186 106.092 30.2657C105.962 30.3686 105.818 30.4714 105.674 30.5743C105.348 30.8186 105.034 31.0629 104.695 31.2814C104.577 31.3586 104.446 31.4229 104.329 31.5C103.963 31.7314 103.584 31.95 103.206 32.1557C103.153 32.1814 103.088 32.2071 103.023 32.2457C100.541 33.4929 97.7977 34.1229 95.0677 34.11L95.0938 34.1357C83.5467 34.1357 74.1941 43.3543 74.1941 54.7071C74.1941 59.4257 72.2478 63.6814 69.1128 66.78C68.7079 67.1786 68.2768 67.5643 67.8327 67.9114C67.7021 68.0143 67.5584 68.1171 67.4147 68.22C67.0882 68.4643 66.7747 68.7086 66.4351 68.9271C66.3175 69.0043 66.1869 69.0686 66.0693 69.1457C65.7036 69.3771 65.3248 69.5957 64.9459 69.8014C64.8937 69.8271 64.8284 69.8529 64.7631 69.8914C59.8125 72.3857 53.8822 72.3857 48.9315 69.8914L48.9707 69.8786Z" fill="white"/>
<path d="M150.334 24.8657C150.334 24.8657 150.282 24.9814 150.243 25.0457C150.047 25.4186 149.812 25.7914 149.577 26.1514C149.498 26.2671 149.433 26.3957 149.355 26.5114C149.133 26.8457 148.884 27.1543 148.636 27.4757C148.532 27.6043 148.44 27.7457 148.323 27.8871C147.957 28.3243 147.578 28.7357 147.173 29.1471C144.038 32.2329 139.702 34.1486 134.908 34.1486C123.361 34.1486 114.008 43.3671 114.008 54.72C114.008 59.4386 112.062 63.6943 108.927 66.7929C108.522 67.1914 108.091 67.5771 107.647 67.9243C107.516 68.0271 107.372 68.13 107.229 68.2329C106.902 68.4771 106.589 68.7214 106.249 68.94C106.131 69.0171 106.001 69.0814 105.883 69.1586C105.517 69.39 105.139 69.6086 104.76 69.8143C104.708 69.84 104.642 69.8657 104.577 69.9043C99.6264 72.3986 93.6961 72.3986 88.7455 69.9043C88.6801 69.8786 88.6279 69.8529 88.5626 69.8143C88.1838 69.6214 87.805 69.39 87.4392 69.1714C87.3086 69.0943 87.191 69.03 87.0604 68.9529C86.7339 68.7343 86.4073 68.49 86.0938 68.2586C85.9501 68.1557 85.8064 68.0529 85.6758 67.95C85.2317 67.59 84.8137 67.2171 84.3957 66.8186C81.2607 63.7329 79.3145 59.4643 79.3145 54.7457C79.3145 45.3214 87.0735 37.6843 96.6482 37.6843C108.195 37.6843 117.548 28.4657 117.548 17.1129C117.587 7.63714 125.346 0 134.921 0C139.715 0 144.038 1.91571 147.186 5.00143C147.591 5.4 147.983 5.82429 148.336 6.26143C148.44 6.39 148.545 6.53143 148.649 6.67286C148.897 6.99429 149.146 7.30286 149.368 7.63714C149.446 7.75286 149.511 7.88143 149.59 7.99714C149.825 8.35714 150.047 8.73 150.256 9.10286C150.282 9.15429 150.308 9.21857 150.347 9.28286C151.575 11.6229 152.268 14.2714 152.268 17.0743C152.268 19.89 151.562 22.5257 150.347 24.8657H150.334Z" fill="white"/>
</svg>
