<svg width="284" height="136" viewBox="0 0 284 136" fill="none" xmlns="http://www.w3.org/2000/svg">
<path d="M279.153 46.9686C279.153 46.9686 279.055 47.1871 278.982 47.3086C278.615 48.0129 278.174 48.7171 277.734 49.3971C277.587 49.6157 277.465 49.8586 277.318 50.0771C276.902 50.7086 276.437 51.2914 275.972 51.8986C275.777 52.1414 275.605 52.4086 275.385 52.6757C274.7 53.5014 273.991 54.2786 273.232 55.0557C267.36 60.8843 259.238 64.5029 250.259 64.5029C228.631 64.5029 211.114 81.9157 211.114 103.36C211.114 112.273 207.468 120.311 201.597 126.164C200.838 126.917 200.031 127.646 199.199 128.301C198.954 128.496 198.685 128.69 198.416 128.884C197.805 129.346 197.217 129.807 196.581 130.22C196.361 130.366 196.116 130.487 195.896 130.633C195.211 131.07 194.502 131.483 193.792 131.871C193.694 131.92 193.572 131.969 193.45 132.041C184.177 136.753 173.07 136.753 163.797 132.041C163.675 131.993 163.577 131.944 163.455 131.871C162.745 131.507 162.036 131.07 161.351 130.657C161.106 130.511 160.886 130.39 160.641 130.244C160.03 129.831 159.418 129.37 158.831 128.933C158.562 128.739 158.293 128.544 158.048 128.35C157.216 127.67 156.433 126.966 155.65 126.213C149.779 120.384 146.133 112.321 146.133 103.409C146.133 85.6071 160.666 71.1814 178.599 71.1814C200.227 71.1814 217.744 53.7686 217.744 32.3243C217.817 14.4257 232.35 0 250.283 0C259.262 0 267.36 3.61857 273.257 9.44714C274.015 10.2 274.749 11.0014 275.41 11.8271C275.605 12.07 275.801 12.3371 275.997 12.6043C276.462 13.2114 276.926 13.7943 277.342 14.4257C277.489 14.6443 277.611 14.8871 277.758 15.1057C278.199 15.7857 278.615 16.49 279.006 17.1943C279.055 17.2914 279.104 17.4129 279.177 17.5343C281.477 21.9543 282.774 26.9571 282.774 32.2514C282.774 37.57 281.453 42.5486 279.177 46.9686H279.153Z" fill="url(#paint0_linear_13_404)"/>
<path d="M89.2995 131.993C89.2995 131.993 89.0793 131.896 88.957 131.823C88.2475 131.459 87.5625 131.021 86.853 130.609C86.6083 130.463 86.3881 130.341 86.1435 130.196C85.5318 129.783 84.9202 129.321 84.333 128.884C84.0639 128.69 83.7948 128.496 83.5501 128.301C82.7183 127.621 81.9354 126.917 81.1525 126.164C75.2807 120.336 71.6353 112.273 71.6353 103.36C71.6353 81.8914 54.118 64.5029 32.4903 64.5029L32.5393 64.4543C27.426 64.4543 22.3126 63.2886 17.6642 60.9329C17.5419 60.8843 17.444 60.8357 17.3217 60.7629C16.6122 60.3986 15.9027 59.9614 15.2176 59.5486C14.973 59.4029 14.7528 59.2814 14.5081 59.1357C13.8965 58.7229 13.2848 58.2614 12.6977 57.8243C12.4285 57.63 12.1594 57.4357 11.9148 57.2414C11.0829 56.5614 10.3 55.8571 9.51713 55.1043C3.64538 49.2757 0 41.2129 0 32.3C0.0244656 14.4257 14.557 0 32.4903 0C50.4236 0 64.9562 14.4257 64.9562 32.2271C64.9562 53.6957 82.4736 71.0843 104.101 71.0843C125.729 71.0843 143.246 53.6714 143.246 32.2271C143.246 14.4257 157.779 0 175.737 0C193.67 0 208.202 14.4257 208.202 32.2271C208.202 41.14 204.557 49.1786 198.685 55.0314C197.927 55.7843 197.12 56.5129 196.288 57.1686C196.043 57.3629 195.774 57.5571 195.505 57.7514C194.893 58.2129 194.306 58.6743 193.67 59.0871C193.45 59.2329 193.205 59.3543 192.985 59.5C192.3 59.9371 191.59 60.35 190.881 60.7386C190.783 60.7871 190.661 60.8357 190.538 60.9086C185.89 63.2643 180.752 64.4543 175.639 64.43L175.688 64.4786C154.06 64.4786 136.543 81.8914 136.543 103.336C136.543 112.249 132.897 120.287 127.026 126.14C126.267 126.893 125.46 127.621 124.628 128.277C124.383 128.471 124.114 128.666 123.845 128.86C123.233 129.321 122.646 129.783 122.01 130.196C121.79 130.341 121.545 130.463 121.325 130.609C120.64 131.046 119.93 131.459 119.221 131.847C119.123 131.896 119.001 131.944 118.878 132.017C109.606 136.729 98.4986 136.729 89.2261 132.017L89.2995 131.993Z" fill="url(#paint1_linear_13_404)"/>
<defs>
<linearGradient id="paint0_linear_13_404" x1="146.182" y1="67.7814" x2="282.749" y2="67.7814" gradientUnits="userSpaceOnUse">
<stop stop-color="#C94B43"/>
<stop offset="1" stop-color="#444489"/>
</linearGradient>
<linearGradient id="paint1_linear_13_404" x1="208.227" y1="67.7814" x2="0.0244722" y2="67.7814" gradientUnits="userSpaceOnUse">
<stop offset="0.07" stop-color="#C94B43"/>
<stop offset="0.6" stop-color="#D36554"/>
<stop offset="1" stop-color="#DFAC3A"/>
</linearGradient>
</defs>
</svg>
